<svg xmlns="http://www.w3.org/2000/svg" xmlns:xlink="http://www.w3.org/1999/xlink" width="616.832" height="7903" viewBox="0 0 616.832 7903"><svg viewBox="0 90 612 612" width="612" height="612" id="all-time" y="0"><path d="M306 90C144.3 90 12.8 221.6 12.8 383.2S144.3 676.5 306 676.5c7 0 12.8-5.7 12.8-12.8S313 651 306 651C158.4 651 38.3 530.9 38.3 383.2S158.4 115.5 306 115.5s267.8 120.1 267.8 267.8c0 52.2-15.1 102.9-43.5 146.4-3.9 5.9-2.2 13.8 3.7 17.6 5.8 3.8 13.8 2.2 17.6-3.7 31.2-47.7 47.7-103.1 47.7-160.4C599.2 221.6 467.7 90 306 90z"></path><path d="M443.5 273.3c-4.4-5.5-12.4-6.4-17.9-2l-106.8 85.4v-203c0-7-5.7-12.8-12.8-12.8s-12.8 5.7-12.8 12.8v229.5c0 4.9 2.8 9.4 7.2 11.5 1.8.8 3.7 1.2 5.5 1.2 2.8 0 5.7-.9 8-2.8l127.5-102c5.6-4.3 6.5-12.3 2.1-17.8zM357 523.5h-27.2l37.8-56.7c3.9-5.9 2.3-13.8-3.5-17.7-5.8-3.9-13.7-2.3-17.7 3.5l-51 76.5c-2.6 3.9-2.9 8.9-.6 13.1 2.2 4.1 6.5 6.7 11.2 6.7h38.3v12.8c0 7 5.7 12.8 12.8 12.8s12.8-5.7 12.8-12.8v-25.5c-.2-7-5.9-12.7-12.9-12.7z"></path><path d="M280.5 549h-20.2l11.2-11.2c14-14 21.8-32.7 21.8-52.5 0-21.1-17.2-38.3-38.3-38.3s-38.3 17.2-38.3 38.3c0 7 5.7 12.8 12.8 12.8 7 0 12.8-5.7 12.8-12.8 0-7 5.7-12.7 12.7-12.7 7 0 12.8 5.7 12.8 12.8 0 13-5.1 25.2-14.3 34.5l-33 33c-3.6 3.6-4.7 9.1-2.8 13.9 2 4.8 6.6 7.9 11.8 7.9h51c7 0 12.8-5.7 12.8-12.8 0-7.2-5.8-12.9-12.8-12.9zM464.2 448.1c-6.5-2.8-14 0-16.8 6.5l-102 229.5c-2.9 6.4.1 14 6.5 16.8 1.7.7 3.4 1.1 5.2 1.1 4.9 0 9.5-2.8 11.7-7.6l102-229.5c2.7-6.4-.2-13.9-6.6-16.8zM520.9 580.5c-2.3-3.7-6.5-6-10.9-6h-51c-7 0-12.8 5.7-12.8 12.8S452 600 459 600h30.4l-41.8 83.5c-3.1 6.3-.6 13.9 5.7 17.1 1.9.9 3.8 1.4 5.7 1.4 4.7 0 9.2-2.6 11.4-7.1l51-102c2-3.9 1.8-8.6-.5-12.4z"></path></svg><svg viewBox="0 90 612 612" width="612" height="612" id="calcultion" y="612"><path d="M582.8 448.5h-9.2V366c0-13.1-6.5-24.6-16.4-31.6v-11.2c0-16.3-13.3-29.5-29.5-29.5h-6.8l26.2-38.4c8.8-12.9 5.4-30.5-7.4-39.2L362 94.9c-6.2-4.2-13.7-5.8-21.2-4.4-7.4 1.4-13.8 5.6-18.1 11.8L169.6 327.2H127l10.3-104.1c.1-1.2.9-2.2 1.9-2.6 13.3-5 24.7-14.3 32.3-26.3.6-.9 1.7-1.5 2.9-1.4l66.9 6.6c4.8.5 9.1-3 9.5-7.8.5-4.8-3-9.1-7.8-9.5l-66.9-6.6c-7.8-.8-15.2 2.8-19.3 9.4-5.6 8.8-14 15.6-23.8 19.3-7.3 2.8-12.4 9.4-13.1 17.2l-10.5 105.9H98.3l16.3-164.7c.6-5.9 5.9-10.3 11.8-9.7l135.2 13.4c4.8.5 9.1-3 9.5-7.8s-3-9.1-7.8-9.5l-135.2-13.4c-15.5-1.5-29.4 9.8-30.9 25.3L84.1 293.5H61.7c-16.3 0-29.5 13.3-29.5 29.5v7.7C18.9 336.9 9.6 350.4 9.6 366v297.3C9.6 684.6 27 702 48.3 702h486.6c21.4 0 38.8-17.4 38.8-38.8v-82.5h9.2c10.8 0 19.6-8.8 19.6-19.6V468c-.1-10.7-8.9-19.5-19.7-19.5zM527.7 311c6.7 0 12.1 5.4 12.1 12.1v4.4c-1.6-.2-3.2-.3-4.9-.3h-37L509 311h18.7zM337.2 112.2c1.6-2.4 4.1-4 6.9-4.5.7-.1 1.4-.2 2-.2 2.1 0 4.2.6 6.1 1.9l177.5 121c4.9 3.4 6.2 10.1 2.8 15l-55.8 81.9h-13.4l27.4-40.1c4.4-6.5 4.8-14.8 1-21.6-5.1-9.1-7.2-19.8-5.8-30.1 1-7.7-2.4-15.2-8.8-19.6l-92-62.7c-6.4-4.4-14.7-4.8-21.4-1.1-9.1 5-19.8 7-30.1 5.6-7.6-1.1-15.4 2.4-19.8 8.8L204.1 327.2h-13.4l146.5-215zm3.8 148.1c-38 0-69.2 29.6-71.7 67h-44.2l102.9-151c.6-.9 1.6-1.4 2.5-1.4h.4c14 2 28.6-.7 41-7.6 1-.5 2.2-.5 3.2.2l92 62.7c1 .7 1.5 1.8 1.3 2.9-1.8 14 1 28.6 7.9 40.9.6 1 .5 2.3-.2 3.2l-34.1 50h-29.6c-2.2-37.3-33.4-66.9-71.4-66.9zm54.3 66.9H286.8c2.5-27.7 25.8-49.5 54.2-49.5 28.4 0 51.8 21.8 54.3 49.5zm-345.7-4.1c0-6.7 5.4-12.1 12.1-12.1h20.6l-1.6 16.2H49.6v-4.1zM27 366c0-11.8 9.6-21.3 21.3-21.3h486.6c11.8 0 21.3 9.6 21.3 21.3v24.2H27V366zm529.2 297.2c0 11.8-9.6 21.3-21.3 21.3H48.3c-11.8 0-21.3-9.6-21.3-21.3V639h47c4.8 0 8.7-3.9 8.7-8.7s-3.9-8.7-8.7-8.7H27v-214h529.2v40.9h-82.9c-26.1 0-48.8 15.2-59.5 37.3 0 .1-.1.1-.1.2l-.3.6c-1.3 2.7-2.4 5.5-3.3 8.4-1.9 6.2-3 12.8-3 19.6 0 36.5 29.7 66.1 66.1 66.1h82.9v40.9H129.9c-4.8 0-8.7 3.9-8.7 8.7s3.9 8.7 8.7 8.7h426.3v24.2zM585 561.1c0 1.2-1 2.2-2.2 2.2H473.3c-18.5 0-34.6-10.3-42.8-25.5-.4-.7-.7-1.4-1.1-2.1-.7-1.4-1.3-2.9-1.8-4.4-1.9-5.2-3-10.9-3-16.7 0-5.9 1-11.5 3-16.7.5-1.5 1.2-2.9 1.8-4.4.3-.7.7-1.4 1.1-2.1 8.3-15.2 24.4-25.5 42.8-25.5h109.5c1.2 0 2.2 1 2.2 2.2v93z"></path><path d="M475.4 479.2c-19.5 0-35.4 15.9-35.4 35.4s15.9 35.4 35.4 35.4 35.4-15.9 35.4-35.4-15.9-35.4-35.4-35.4zm0 53.3c-9.9 0-17.9-8-17.9-17.9 0-9.9 8-17.9 17.9-17.9 9.9 0 17.9 8 17.9 17.9 0 9.9-8.1 17.9-17.9 17.9z"></path></svg><svg class="ss" viewBox="0 222.6 612 346.8" width="612" height="346.8" id="cargo" y="1224"><path d="M605.6 447.7l-46.9-18.8-18.8-46.9c-1.6-3.9-5.3-6.4-9.5-6.4H459c-5.6 0-10.2 4.6-10.2 10.2v153c0 5.6 4.6 10.2 10.2 10.2h30.6v-20.4h-20.4V396h54.3l17.8 44.6c1 2.6 3.1 4.7 5.7 5.7l44.6 17.8v64.5h-40.8V549h51c5.6 0 10.2-4.6 10.2-10.2v-81.6c0-4.2-2.5-7.9-6.4-9.5z"></path><path d="M520.2 487.8c-22.5 0-40.8 18.3-40.8 40.8 0 22.5 18.3 40.8 40.8 40.8 22.5 0 40.8-18.3 40.8-40.8 0-22.5-18.3-40.8-40.8-40.8zm0 61.2c-11.3 0-20.4-9.1-20.4-20.4s9.1-20.4 20.4-20.4 20.4 9.1 20.4 20.4-9.1 20.4-20.4 20.4zM377.4 487.8c-22.5 0-40.8 18.3-40.8 40.8 0 22.5 18.3 40.8 40.8 40.8 22.5 0 40.8-18.3 40.8-40.8 0-22.5-18.3-40.8-40.8-40.8zm0 61.2c-11.3 0-20.4-9.1-20.4-20.4s9.1-20.4 20.4-20.4c11.3 0 20.4 9.1 20.4 20.4s-9.1 20.4-20.4 20.4zM61.2 487.8c-22.5 0-40.8 18.3-40.8 40.8 0 22.5 18.3 40.8 40.8 40.8s40.8-18.3 40.8-40.8c0-22.5-18.3-40.8-40.8-40.8zm0 61.2c-11.3 0-20.4-9.1-20.4-20.4s9.1-20.4 20.4-20.4c11.3 0 20.4 9.1 20.4 20.4S72.5 549 61.2 549zM163.2 487.8c-22.5 0-40.8 18.3-40.8 40.8 0 22.5 18.3 40.8 40.8 40.8s40.8-18.3 40.8-40.8c0-22.5-18.3-40.8-40.8-40.8zm0 61.2c-11.3 0-20.4-9.1-20.4-20.4s9.1-20.4 20.4-20.4c11.3 0 20.4 9.1 20.4 20.4s-9.1 20.4-20.4 20.4z"></path><path d="M418.2 304.2h-408c-5.6 0-10.2 4.6-10.2 10.2V498c0 5.6 4.6 10.2 10.2 10.2h408c5.6 0 10.2-4.6 10.2-10.2V314.4c0-5.6-4.6-10.2-10.2-10.2zM408 487.8H20.4V324.6H408v163.2z"></path><path d="M40.8 345h20.4v122.4H40.8zM81.6 345H102v122.4H81.6zM122.4 345h20.4v122.4h-20.4zM163.2 345h20.4v122.4h-20.4zM204 345h20.4v122.4H204zM244.8 345h20.4v122.4h-20.4zM285.6 345H306v122.4h-20.4zM326.4 345h20.4v122.4h-20.4zM367.2 345h20.4v122.4h-20.4zM0 222.6h30.6V243H0zM51 222.6h91.8V243H51zM81.6 263.4h153v20.4h-153zM408 528.6h51V549h-51zM418.2 487.8H459v20.4h-40.8zM91.8 528.6h40.8V549H91.8z"></path></svg><svg viewBox="0 90 612 612" width="612" height="612" id="danger" y="1571"><path d="M353.2 451.3c-1.8-3-4.6-5.3-8-6.2-3.4-.9-7-.4-10 1.3-8.8 5.1-18.9 7.8-29.1 7.8-10.2 0-20.3-2.7-29.1-7.8-3-1.8-6.6-2.2-10-1.3-3.4.9-6.3 3.1-8 6.2l-89 154.2c-1.8 3-2.2 6.6-1.3 10s3.1 6.3 6.2 8c39.2 22.6 83.9 34.8 129.2 35.2h2.3c45.9 0 91.2-12.2 131.1-35.2 6.3-3.7 8.5-11.7 4.8-18.1l-89.1-154.1zm-47 181h-2.1c-36.3-.3-72.2-9.1-104.6-25.4L275.6 475c9.7 3.7 20 5.6 30.4 5.6 10.4 0 20.7-1.9 30.4-5.6l76.1 131.9c-33 16.7-69.5 25.4-106.3 25.4zM247.8 396c0-20.7 11.1-40 29.1-50.4 6.3-3.7 8.5-11.7 4.8-18l-89-154.2c-1.8-3-4.6-5.3-8-6.2-3.4-.9-7-.4-10 1.3-39.2 22.7-72.1 55.3-95.1 94.3C55.8 303 43.3 349.1 43.3 396c0 7.3 5.9 13.2 13.2 13.2h178.1c7.3 0 13.2-5.9 13.2-13.2zM70.1 382.8c2.1-37.6 13.1-74.2 32.2-106.6 18.5-31.3 44-58 74.3-77.9l76.2 131.9c-16.2 13.2-27.1 32-30.3 52.6H70.1zM534.6 266.5c-23-40.6-56.6-74.5-97.2-98-6.3-3.6-14.4-1.5-18.1 4.8l-89 154.2c-3.6 6.3-1.5 14.4 4.8 18 18 10.4 29.1 29.7 29.1 50.4 0 7.3 5.9 13.2 13.2 13.2h178.1c3.5 0 6.9-1.4 9.3-3.9 2.5-2.5 3.9-5.8 3.9-9.4 0-45.1-11.8-89.9-34.1-129.3zm-145 116.3c-3.3-20.6-14.1-39.4-30.4-52.6l76.1-131.9c31.5 20.6 57.7 48.5 76.2 81.2 17.9 31.6 28.3 67.1 30.3 103.3H389.6zM261.4 396c0 24.6 20 44.6 44.6 44.6s44.6-20 44.6-44.6-20-44.6-44.6-44.6-44.6 20-44.6 44.6zm44.6-18.1c10 0 18.1 8.1 18.1 18.1s-8.1 18.1-18.1 18.1c-10 0-18.1-8.1-18.1-18.1s8.1-18.1 18.1-18.1z"></path><path d="M522.4 179.6C464.6 121.8 387.7 90 306 90s-158.6 31.8-216.4 89.6S0 314.3 0 396s31.8 158.6 89.6 216.4C147.4 670.2 224.3 702 306 702s158.6-31.8 216.4-89.6C580.2 554.6 612 477.7 612 396s-31.8-158.6-89.6-216.4zM306 675.6C151.8 675.6 26.4 550.2 26.4 396S151.8 116.4 306 116.4 585.6 241.8 585.6 396 460.2 675.6 306 675.6z"></path></svg><svg viewBox="0 90 612 612" width="612" height="612" id="delivery" y="2183"><path d="M275.4 538.8c-45 0-81.6 36.6-81.6 81.6s36.6 81.6 81.6 81.6 81.6-36.6 81.6-81.6-36.6-81.6-81.6-81.6zm0 142.8c-33.8 0-61.2-27.4-61.2-61.2 0-33.8 27.4-61.2 61.2-61.2s61.2 27.4 61.2 61.2c0 33.8-27.4 61.2-61.2 61.2zM61.2 579.6C27.4 579.6 0 607 0 640.8S27.4 702 61.2 702s61.2-27.4 61.2-61.2-27.4-61.2-61.2-61.2zm0 102c-22.5 0-40.8-18.3-40.8-40.8 0-22.5 18.3-40.8 40.8-40.8s40.8 18.3 40.8 40.8c0 22.5-18.3 40.8-40.8 40.8zM601.8 406.2H428.4c-5.6 0-10.2 4.6-10.2 10.2v163.2c0 5.6 4.6 10.2 10.2 10.2h173.4c5.6 0 10.2-4.6 10.2-10.2V416.4c0-5.6-4.6-10.2-10.2-10.2zm-10.2 163.2h-153V426.6h153v142.8z"></path><path d="M540.6 406.2h-51c-5.6 0-10.2 4.6-10.2 10.2v61.2c0 5.6 4.6 10.2 10.2 10.2h51c5.6 0 10.2-4.6 10.2-10.2v-61.2c0-5.6-4.6-10.2-10.2-10.2zm-10.2 61.2h-30.6v-40.8h30.6v40.8zM102 661.2h122.4v20.4H102zM339.6 490.8l-48 48H258l-79.1-49.5c-1.6-1-3.5-1.6-5.4-1.6H10.2C4.6 487.8 0 492.4 0 498v142.8h20.4V508.2h150.1l79.1 49.5c1.6 1 3.5 1.6 5.4 1.6h40.8c2.7 0 5.3-1.1 7.2-3l51-51-14.4-14.5z"></path><path d="M355.9 462.8L252.2 255.4c-6.9-13.9-20.9-22.6-36.5-22.6H30.6C13.7 232.8 0 246.5 0 263.4V498h20.4V263.4c0-5.6 4.6-10.2 10.2-10.2h185.1c7.8 0 14.8 4.3 18.2 11.3l102.7 205.3v150.6H357v-153c0-1.6-.4-3.2-1.1-4.6z"></path><path d="M275.4 589.8c-16.9 0-30.6 13.7-30.6 30.6s13.7 30.6 30.6 30.6 30.6-13.7 30.6-30.6-13.7-30.6-30.6-30.6zm0 40.8c-5.6 0-10.2-4.6-10.2-10.2s4.6-10.2 10.2-10.2 10.2 4.6 10.2 10.2-4.6 10.2-10.2 10.2zM173.4 447H102v-81.6c0-16.9-13.7-30.6-30.6-30.6s-30.6 13.7-30.6 30.6V498h20.4V365.4c0-5.6 4.6-10.2 10.2-10.2s10.2 4.6 10.2 10.2v91.8c0 5.6 4.6 10.2 10.2 10.2h81.6c5.6 0 10.2 4.6 10.2 10.2s-4.6 10.2-10.2 10.2h-10.2v20.4h10.2c16.9 0 30.6-13.7 30.6-30.6S190.3 447 173.4 447zM262.217 382.808l-50.982 50.982-14.425-14.425 50.982-50.982z"></path><path d="M343.762 500.968l-14.424 14.425-101.964-101.964 14.425-14.425z"></path><path d="M387.6 90h-40.8c-5.6 0-10.2 4.6-10.2 10.2v571.2c0 5.6 4.6 10.2 10.2 10.2h40.8c5.6 0 10.2-4.6 10.2-10.2V100.2c0-5.6-4.6-10.2-10.2-10.2zm-10.2 571.2H357V110.4h20.4v550.8z"></path><path d="M387.6 610.2H612v20.4H387.6zM51 630.6h20.4V651H51z"></path></svg><svg viewBox="0 202.4 612 387.1" width="612" height="387.1" id="guaranty" y="2795"><path d="M569.2 366.6l-15.8-63.4c4.3-.9 7.6-4.8 7.6-9.4v-10.2c0-22.2-18.1-40.2-40.2-40.2h-72.2v-21.1c0-10.9-8.9-19.8-19.8-19.8h-368c-10.9 0-19.8 8.9-19.8 19.8V396c0 5.3 4.3 9.6 9.6 9.6s9.6-4.3 9.6-9.6V222.2c0-.4.3-.6.6-.6h368c.4 0 .6.3.6.6V396c0 5.3 4.3 9.6 9.6 9.6s9.6-4.3 9.6-9.6v-10.9h113c13.9 0 25.7 9.1 29.8 21.7h-29.8c-5.3 0-9.6 4.3-9.6 9.6v20.4c0 16.6 13.5 30 30 30h10.9V509h-25.1c-8.2-23.8-30.8-40.9-57.4-40.9-26.5 0-49.1 17.1-57.4 40.9h-4.6v-72.2c0-5.3-4.3-9.6-9.6-9.6s-9.6 4.3-9.6 9.6V509H230.5c-8.2-23.8-30.8-40.9-57.4-40.9S124 485.2 115.7 509h-55c-.4 0-.6-.3-.6-.6v-21.1h41.5c5.3 0 9.6-4.3 9.6-9.6s-4.3-9.6-9.6-9.6h-92c-5.3 0-9.6 4.3-9.6 9.6s4.3 9.6 9.6 9.6h31.3v21.1c0 10.9 8.9 19.8 19.8 19.8h51.8v.6c0 33.5 27.2 60.7 60.7 60.7s60.7-27.2 60.7-60.7v-.6h216v.6c0 33.5 27.2 60.7 60.7 60.7s60.7-27.2 60.7-60.7v-.6h31.3c5.3 0 9.6-4.3 9.6-9.6V416.4c-.2-25.2-18.8-46.2-43-49.8zM448.5 262.5h72.2c11.6 0 21.1 9.5 21.1 21.1v.6h-93.3v-21.7zm0 103.5v-62.6h85.1l15.7 62.6H448.5zM173.1 570.4c-22.9 0-41.5-18.6-41.5-41.5s18.6-41.5 41.5-41.5 41.5 18.6 41.5 41.5-18.6 41.5-41.5 41.5zm337.3 0c-22.9 0-41.5-18.6-41.5-41.5s18.6-41.5 41.5-41.5 41.5 18.6 41.5 41.5-18.6 41.5-41.5 41.5zm82.4-122.7H582c-6 0-10.9-4.9-10.9-10.9V426h21.7v21.7z"></path><path d="M173.1 509.1c-10.9 0-19.8 8.9-19.8 19.8s8.9 19.8 19.8 19.8 19.8-8.9 19.8-19.8-8.9-19.8-19.8-19.8zM510.4 509.1c-10.9 0-19.8 8.9-19.8 19.8s8.9 19.8 19.8 19.8 19.8-8.9 19.8-19.8-8.9-19.8-19.8-19.8zM398 468.2H254.9c-5.3 0-9.6 4.3-9.6 9.6s4.3 9.6 9.6 9.6H398c5.3 0 9.6-4.3 9.6-9.6s-4.3-9.6-9.6-9.6zM152.7 427.3H30c-5.3 0-9.6 4.3-9.6 9.6s4.3 9.6 9.6 9.6h122.7c5.3 0 9.6-4.3 9.6-9.6s-4.3-9.6-9.6-9.6zM333.2 297.2c-3.7-3.7-9.8-3.7-13.6 0l-85.2 85.2-44.3-44.3c-3.7-3.7-9.8-3.7-13.6 0-3.7 3.7-3.7 9.8 0 13.6l51.1 51.1c1.9 1.9 4.3 2.8 6.8 2.8s4.9-.9 6.8-2.8l92-92c3.8-3.8 3.8-9.8 0-13.6z"></path></svg><svg viewBox="0 181.8 612 428.4" width="612" height="428.4" id="home-office" y="3183"><path d="M153 487.8c-33.8 0-61.2 27.4-61.2 61.2s27.4 61.2 61.2 61.2 61.2-27.4 61.2-61.2-27.4-61.2-61.2-61.2zm0 102c-22.5 0-40.8-18.3-40.8-40.8 0-22.5 18.3-40.8 40.8-40.8s40.8 18.3 40.8 40.8c0 22.5-18.3 40.8-40.8 40.8z"></path><path d="M142.8 538.8h20.4v20.4h-20.4zM499.8 487.8c-33.8 0-61.2 27.4-61.2 61.2s27.4 61.2 61.2 61.2S561 582.8 561 549s-27.4-61.2-61.2-61.2zm0 102c-22.5 0-40.8-18.3-40.8-40.8s18.3-40.8 40.8-40.8c22.5 0 40.8 18.3 40.8 40.8 0 22.5-18.3 40.8-40.8 40.8z"></path><path d="M489.6 538.8H510v20.4h-20.4z"></path><path d="M611.3 463.6l-61.2-153c-1.6-3.9-5.3-6.4-9.5-6.4H408c-5.6 0-10.2 4.6-10.2 10.2V549c0 5.6 4.6 10.2 10.2 10.2h40.8v-20.4h-30.6V324.6h115.5l57.9 144.8v69.4h-40.8v20.4h51c5.6 0 10.2-4.6 10.2-10.2v-81.6c0-1.3-.2-2.6-.7-3.8z"></path><path d="M408 222.6H10.2c-5.6 0-10.2 4.6-10.2 10.2V549c0 5.6 4.6 10.2 10.2 10.2H102v-20.4H20.4V243h377.4v295.8H204v20.4h204c5.6 0 10.2-4.6 10.2-10.2V232.8c0-5.6-4.6-10.2-10.2-10.2zM479.4 426.6v-61.2h71.4V345h-81.6c-5.6 0-10.2 4.6-10.2 10.2v81.6c0 5.6 4.6 10.2 10.2 10.2h122.4v-20.4H479.4zM571.2 498h30.6v20.4h-30.6z"></path><path d="M0 498h81.6v20.4H0zM224.4 498H408v20.4H224.4zM61.2 304.2c-5.6 0-10.2 4.6-10.2 10.2v91.8h20.4v-81.6h40.8v-20.4h-51z"></path><path d="M61.2 345h51v20.4h-51zM204 334.8c0-16.9-13.7-30.6-30.6-30.6h-30.6c-5.6 0-10.2 4.6-10.2 10.2v91.8H153v-81.6h20.4c5.6 0 10.2 4.6 10.2 10.2S179 345 173.4 345s-10.2 4.6-10.2 10.2 4.6 10.2 10.2 10.2 10.2 4.6 10.2 10.2v30.6H204v-30.6c0-7.8-3-15-7.8-20.4 4.8-5.4 7.8-12.6 7.8-20.4zM234.6 345h51v20.4h-51z"></path><path d="M285.6 324.6v-20.4h-51c-5.6 0-10.2 4.6-10.2 10.2V396c0 5.6 4.6 10.2 10.2 10.2h51v-20.4h-40.8v-61.2h40.8zM316.2 345h51v20.4h-51z"></path><path d="M367.2 324.6v-20.4h-51c-5.6 0-10.2 4.6-10.2 10.2V396c0 5.6 4.6 10.2 10.2 10.2h51v-20.4h-40.8v-61.2h40.8zM51 426.6h316.2V447H51zM40.8 181.8h91.8v20.4H40.8zM0 181.8h20.4v20.4H0z"></path></svg><svg viewBox="0 90 612 612" width="612" height="612" id="i-fax" y="3612"><path d="M561 518.4H275.4c-5.6 0-10.2 4.6-10.2 10.2s4.6 10.2 10.2 10.2H561c5.6 0 10.2-4.6 10.2-10.2s-4.6-10.2-10.2-10.2zM520.2 314.4h-40.8c-5.6 0-10.2 4.6-10.2 10.2s4.6 10.2 10.2 10.2h40.8c5.6 0 10.2-4.6 10.2-10.2s-4.6-10.2-10.2-10.2zM520.2 436.8h-40.8c-5.6 0-10.2 4.6-10.2 10.2s4.6 10.2 10.2 10.2h40.8c5.6 0 10.2-4.6 10.2-10.2s-4.6-10.2-10.2-10.2zM520.2 375.6h-40.8c-5.6 0-10.2 4.6-10.2 10.2s4.6 10.2 10.2 10.2h40.8c5.6 0 10.2-4.6 10.2-10.2s-4.6-10.2-10.2-10.2zM255 559.2h-10.2V120.6c0-16.9-13.7-30.6-30.6-30.6H91.8c-16.9 0-30.6 13.7-30.6 30.6v408c0 5.6 4.6 10.2 10.2 10.2s10.2-4.6 10.2-10.2v-408c0-5.6 4.6-10.2 10.2-10.2h122.4c5.6 0 10.2 4.6 10.2 10.2v489.6c0 5.6-4.6 10.2-10.2 10.2H91.8c-5.6 0-10.2-4.6-10.2-10.2v-40.8c0-5.6-4.6-10.2-10.2-10.2H51c-18.3 0-30.6-12.3-30.6-30.6V161.4c0-10.9 5.7-20.7 15.3-26.3 4.9-2.8 6.5-9.1 3.7-14s-9.1-6.5-13.9-3.7c-15.7 9.2-25.5 26-25.5 44v367.2c0 29.5 21.5 51 51 51h10.2v30.6c0 16.9 13.7 30.6 30.6 30.6h122.4c16.9 0 30.6-13.7 30.6-30.6v-30.6H255c5.6 0 10.2-4.6 10.2-10.2s-4.6-10.2-10.2-10.2zM540.6 559.2c-5.6 0-10.2 4.6-10.2 10.2v112.2H306V569.4c0-5.6-4.6-10.2-10.2-10.2s-10.2 4.6-10.2 10.2v122.4c0 5.6 4.6 10.2 10.2 10.2h244.8c5.6 0 10.2-4.6 10.2-10.2V569.4c0-5.6-4.6-10.2-10.2-10.2z"></path><path d="M357 640.8h102c5.6 0 10.2-4.6 10.2-10.2s-4.6-10.2-10.2-10.2H357c-5.6 0-10.2 4.6-10.2 10.2s4.6 10.2 10.2 10.2zM357 600h122.4c5.6 0 10.2-4.6 10.2-10.2s-4.6-10.2-10.2-10.2H357c-5.6 0-10.2 4.6-10.2 10.2S351.4 600 357 600zM316.2 396H357c5.6 0 10.2-4.6 10.2-10.2s-4.6-10.2-10.2-10.2h-40.8c-5.6 0-10.2 4.6-10.2 10.2s4.6 10.2 10.2 10.2zM316.2 334.8H357c5.6 0 10.2-4.6 10.2-10.2s-4.6-10.2-10.2-10.2h-40.8c-5.6 0-10.2 4.6-10.2 10.2s4.6 10.2 10.2 10.2zM316.2 457.2H357c5.6 0 10.2-4.6 10.2-10.2s-4.6-10.2-10.2-10.2h-40.8c-5.6 0-10.2 4.6-10.2 10.2s4.6 10.2 10.2 10.2zM561 110.4H275.4c-5.6 0-10.2 4.6-10.2 10.2s4.6 10.2 10.2 10.2H561c16.9 0 30.6 13.7 30.6 30.6v377.4c0 10.8-5.8 20.9-15.1 26.4-4.9 2.9-6.5 9.1-3.6 14 1.9 3.2 5.3 5 8.8 5 1.8 0 3.5-.5 5.2-1.4 15.5-9.1 25.2-26 25.2-44V161.4c-.1-28.1-23-51-51.1-51z"></path><path d="M438.6 375.6h-40.8c-5.6 0-10.2 4.6-10.2 10.2s4.6 10.2 10.2 10.2h40.8c5.6 0 10.2-4.6 10.2-10.2s-4.6-10.2-10.2-10.2zM530.4 202.2c0-5.6-4.6-10.2-10.2-10.2h-204c-5.6 0-10.2 4.6-10.2 10.2v61.2c0 5.6 4.6 10.2 10.2 10.2h204c5.6 0 10.2-4.6 10.2-10.2v-61.2zm-20.4 51H326.4v-40.8H510v40.8zM438.6 436.8h-40.8c-5.6 0-10.2 4.6-10.2 10.2s4.6 10.2 10.2 10.2h40.8c5.6 0 10.2-4.6 10.2-10.2s-4.6-10.2-10.2-10.2zM438.6 314.4h-40.8c-5.6 0-10.2 4.6-10.2 10.2s4.6 10.2 10.2 10.2h40.8c5.6 0 10.2-4.6 10.2-10.2s-4.6-10.2-10.2-10.2z"></path></svg><svg viewBox="0 2.6 79.5 76.9" width="79.5" height="76.9" id="i-mail" y="4224"><path fill="#010002" d="M39.8 2.6L0 32.3v47.2h79.5V32.3L39.8 2.6zm-11 21.2c1.2-2.1 2.8-3.7 4.8-4.8 2-1.1 4.4-1.6 7-1.6 2.2 0 4.2.4 5.9 1.3 1.7.9 3 2.1 4 3.7.9 1.6 1.4 3.3 1.4 5.2 0 2.2-.7 4.3-2.1 6.1-1.7 2.3-4 3.4-6.7 3.4-.7 0-1.3-.1-1.7-.4-.4-.3-.6-.6-.7-1.1-1 1-2.2 1.5-3.6 1.5-1.5 0-2.7-.5-3.6-1.5-1-1-1.4-2.4-1.4-4 0-2.1.6-4 1.7-5.7 1.4-2.1 3.2-3.1 5.4-3.1 1.6 0 2.7.6 3.5 1.8l.3-1.5h3.5l-2 9.5c-.1.6-.2 1-.2 1.2 0 .2.1.4.1.5.1.1.2.2.4.2.4 0 1-.2 1.6-.8.9-.7 1.6-1.6 2.2-2.7.6-1.1.8-2.3.8-3.5 0-2.2-.8-4-2.4-5.4-1.6-1.5-3.8-2.2-6.6-2.2-2.4 0-4.4.5-6.1 1.5-1.7 1-2.9 2.3-3.8 4.1-.8 1.8-1.3 3.6-1.3 5.5s.5 3.6 1.4 5.1c.9 1.5 2.3 2.6 4 3.3 1.7.7 3.6 1 5.8 1 2.1 0 3.9-.3 5.4-.9 1.5-.6 2.7-1.5 3.7-2.6h2.8c-.9 1.8-2.2 3.2-4 4.2-2.1 1.2-4.6 1.7-7.6 1.7-2.9 0-5.4-.5-7.5-1.5-2.1-1-3.7-2.4-4.7-4.3S27 33 27 30.7c0-2.4.6-4.7 1.8-6.9zm-26 9.5L32.1 53 2.8 75.6V33.3zM5 77.2l34.7-26.9 34.7 26.9H5zm71.7-1.6L47.4 52.9l29.3-19.7v42.4zM41.2 26c.5.5.7 1.3.7 2.3 0 .9-.2 1.9-.5 2.9s-.7 1.8-1.2 2.4c-.3.4-.7.7-1 .8-.4.2-.9.4-1.4.4-.7 0-1.2-.3-1.7-.8s-.7-1.3-.7-2.5c0-.8.2-1.8.5-2.9.3-1.1.8-1.9 1.5-2.5.6-.6 1.3-.9 2.1-.9.7 0 1.2.2 1.7.8z"></path></svg><svg viewBox="0 84 612 617.7" width="612" height="617.7" id="i-map" y="4301"><path d="M306 355.2c39.4 0 71.4-32 71.4-71.4s-32-71.4-71.4-71.4-71.4 32-71.4 71.4 32 71.4 71.4 71.4zm0-122.4c28.1 0 51 22.9 51 51s-22.9 51-51 51-51-22.9-51-51 22.9-51 51-51z"></path><path d="M304.2 648.5l156.5-226c58.7-78.2 50.2-206.9-18.2-275.2-36.9-37-86.1-57.3-138.3-57.3s-101.4 20.3-138.3 57.3c-68.4 68.4-76.9 197-18.4 274.9l156.7 226.3zM180.3 161.7c33.1-33.1 77.1-51.3 123.9-51.3s90.8 18.2 123.9 51.3c61.7 61.7 69.3 177.9 16 248.9L304.2 612.7 164 410.3c-53-70.7-45.4-186.9 16.3-248.6z"></path><path d="M429.6 528.7c-5.6-.7-10.7 3.3-11.3 8.9s3.3 10.7 8.9 11.3c107.3 12.6 164.4 46.7 164.4 66.4 0 27.7-108.7 66.3-285.6 66.3S20.4 643 20.4 615.3c0-19.7 57.1-53.7 164.4-66.4 5.6-.7 9.6-5.7 8.9-11.3-.7-5.6-5.7-9.6-11.3-8.9C75 541.3 0 576.9 0 615.3 0 658.4 105.1 702 306 702s306-43.6 306-86.7c0-38.4-75-74-182.4-86.6z"></path></svg><svg viewBox="0 90 612 612" width="612" height="612" id="i-phone" y="4919"><path d="M588.8 568.8l-120-119.9c-14.3-14.3-37.6-14.3-51.9 0l-31.2 31.2c-9.8 9.8-12.9 23.7-9.3 36.1L364.7 528c-8.4 8.4-60.4-4.5-123.3-67.4-62.9-62.9-75.7-114.9-67.4-123.3l11.8-11.8c3.3 1 6.8 1.4 10.2 1.4 9.4 0 18.8-3.6 26-10.7l31.2-31.2c14.3-14.3 14.3-37.6 0-51.9l-120-119.9c-6.9-6.9-16.2-10.8-26-10.8s-19 3.8-26 10.8L50 144.4c-9.8 9.8-12.9 23.7-9.3 36.1 0 0-10 10.1-10.5 10.7C-3 228.1-9.2 286.1 12.8 355.5c21.5 68 68 140 130.7 202.7 62.8 62.8 134.8 109.2 202.7 130.7 27.3 8.7 52.8 12.9 76 12.9 38 0 69.7-11.5 92.5-34.3l6.5-6.5c3.3.9 6.7 1.4 10.2 1.4 9.8 0 19-3.8 26-10.8l31.2-31.2c14.5-14 14.5-37.3.2-51.6zM107.2 139.2l119.9 119.9-31.1 31.2-.4-.4-59.6-59.6-60-60 31.2-31.1zm381.7 502.6c-26.4 26.4-73.1 30.8-131.4 12.3-62.5-19.8-129.2-63-187.9-121.7C110.9 473.7 67.7 407 47.9 344.5c-18.5-58.4-14.1-105 12.3-131.4l3.3-3.3 93.1 93.1-8.5 8.5c-35.4 35.4 7.1 114.9 67.4 175.2 45.1 45.1 101 80.3 141.1 80.3 13.5 0 25.2-4 34.1-12.9l8.5-8.5 93.1 93.1-3.4 3.2zm42.7-15.9L411.7 506l31.2-31.2 119.9 119.9c0 .1-31.2 31.3-31.2 31.2zM464.8 237.2c-34.9-34.9-81.3-54.1-130.7-54.1-10.1 0-18.4 8.2-18.4 18.4s8.2 18.4 18.4 18.4c39.6 0 76.8 15.4 104.7 43.4 28 28 43.4 65.2 43.4 104.7 0 10.1 8.2 18.4 18.4 18.4 10.1 0 18.4-8.2 18.4-18.4-.1-49.4-19.3-95.8-54.2-130.8z"></path><path d="M530.6 171.4C478.1 118.9 408.3 90 334.1 90c-10.1 0-18.4 8.2-18.4 18.4 0 10.1 8.2 18.4 18.4 18.4 64.4 0 125 25.1 170.6 70.7 45.6 45.6 70.7 106.1 70.7 170.6 0 10.1 8.2 18.4 18.4 18.4 10.1 0 18.4-8.2 18.4-18.4-.2-74.4-29.1-144.2-81.6-196.7zM398.9 303.1c-17.6-17.6-40-26.9-64.9-26.9-10.1 0-18.4 8.2-18.4 18.4 0 10.1 8.2 18.4 18.4 18.4 15.1 0 28.2 5.4 38.9 16.1 10.5 10.5 16.1 24 16.1 38.9 0 10.1 8.2 18.4 18.4 18.4 10.1 0 18.4-8.2 18.4-18.4 0-24.9-9.3-47.3-26.9-64.9z"></path></svg><svg width="616.832" height="616.832" viewBox="0 0 616.832 616.832" id="i-skype" y="5531"><path d="M385.649 263.005a15.989 15.989 0 0 0-1.451-.334C313.239 249.991 271.586 231 271.47 231c-9.212-5.223-14.537-10.765-14.987-15.611-.479-5.194 4.367-11.447 7.428-14.392 17.772-9.01 34.414-13.58 49.501-13.58 32.978 0 48.486 21.922 49.14 22.851 21.588 31.918 43.742 48.109 65.853 48.109 14.812 0 23.634-7.442 24.998-8.705 14.565-12.782 22.284-28.407 22.313-45.208.058-32.18-27.174-57.163-29.988-59.644-32.702-30.496-76.241-45.962-129.37-45.962-49.56 0-89.196 13.812-90.647 14.319-85.308 28.654-92.345 102.196-84.147 137.088.13.551.29 1.088.479 1.61 31.483 87.121 163.522 98.395 169.122 98.83 60.412 4.773 63.228 32.963 63.329 34.572 2.104 29.408-50.634 38.49-58.788 39.709-52.722-2.973-65.388-23.111-65.417-23.111a15.258 15.258 0 0 0-1.48-2.422c-28.973-38.316-40.275-51.592-65.592-52.26l-1.958-.029c-20.312 0-32.31 8.561-38.795 15.758-16.481 18.25-14.334 44.656-14.044 47.6.073.639.174 1.277.319 1.902 23.459 98.133 148.637 100.961 162.84 100.961h.349c7.646.451 14.987.668 22.052.668 167.207 0 178.668-122.158 178.727-123.117 7.282-74.831-66.841-116.412-107.058-127.931zm78.2 125.366c-.377 4.135-11.954 105.547-170.63 96.059-.29-.029-1.32-.029-1.61-.029-11.795 0-115.297-2.191-134.346-77.561-.145-3.338-.232-16.742 6.746-24.447 3.758-4.164 10.011-6.398 18.469-6.166 10.489.275 15.03 3.525 42.61 39.971 4.498 7.588 25.027 34.559 90.516 37.852a14.18 14.18 0 0 0 2.365-.072c33.354-3.787 88.906-22.951 85.526-69.959-.044-2.248-1.901-55.262-90.053-62.225-1.176-.088-117.966-9.982-143.791-78.926-1.741-8.415-13.028-75.863 65.519-102.253.363-.131 36.561-12.738 81.202-12.738 45.556 0 82.421 12.839 109.842 38.403 5.73 5.122 20.587 21.995 20.515 38.229-.044 8.415-4.106 16.046-12.245 23.199-.087.058-2.22 1.654-6.05 1.654-5.397 0-20.239-3.438-41.74-35.241-.973-1.465-24.243-35.719-73.237-35.719-20.239 0-41.929 5.949-64.46 17.657a14.173 14.173 0 0 0-2.466 1.625c-2.133 1.741-20.805 17.656-18.919 40.072 1.277 15.117 11.229 28.059 30.583 38.998 1.813.856 44.946 20.819 120.128 34.341 8.981 2.725 92.04 29.913 85.526 97.276zm137.48-26.869c4.569-25.768 21.907-156.574-75.632-252.487-7.399-8.618-80.593-89.574-215.331-89.574-15.175 0-30.743 1.059-46.354 3.148C251.652 16.089 216.629 0 172.858 0c-47.166 0-89.08 18.208-124.742 54.304-.812.856-80.927 86.411-27.13 196.63-4.033 18.527-13.362 78.896 14.741 152.423 1.552 5.541 39.418 136.246 182.47 178.887 1.944.74 48.225 18.135 112.119 18.135 9.938 0 19.876-.436 29.611-1.277 11.012 4.963 43.162 17.73 82.711 17.73 47.282 0 89.486-18.629 121.637-53.463 3.322-3.322 80.143-82.002 37.054-201.867zM543.354 543.26c-27.304 29.568-61.195 44.555-100.716 44.555-40.768 0-73.165-16.277-73.455-16.424a14.536 14.536 0 0 0-8.096-1.537 311.668 311.668 0 0 1-30.771 1.51c-58.25 0-101.34-16.061-102.776-16.584C99.2 516.508 64.018 396.771 63.263 394.305c-29.989-78.621-13.145-140.556-12.985-141.122a14.559 14.559 0 0 0-1.074-10.721C.312 148.637 66.281 77.329 68.921 74.529c29.843-30.192 64.822-45.513 103.937-45.513 45.266 0 80.521 20.819 80.84 21.008 2.887 1.755 6.34 2.452 9.633 1.944 15.843-2.336 31.671-3.525 47.006-3.525 125.177 0 192.901 78.954 193.54 79.723.319.377.653.754 1.016 1.103 95.246 93.187 67.507 229.041 67.217 230.406a14.62 14.62 0 0 0 .609 8.197c39.419 104.079-26.188 172.167-29.365 175.388z"></path></svg><svg viewBox="0 90 612 612" width="612" height="612" id="inter-carriage" y="6148"><path d="M567.6 237.9c-42.3-70-109.2-119.3-188.5-138.9-79.3-19.6-161.5-7.1-231.5 35.1l10.5 17.5c65.3-39.4 142-51.1 216-32.8 74 18.3 136.5 64.3 175.9 129.6 63.9 105.7 52.7 239.8-27.7 333.5l15.5 13.3c86.3-100.4 98.2-244 29.8-357.3zM483 619.8c-59.8 47.4-134.4 68.6-210.2 59.8-75.7-8.8-143.5-46.5-190.9-106.3C-6 462.4 1.4 301.5 99 199.1L84.3 185C-20.3 294.8-28.2 467.2 66 586c50.7 64 123.4 104.5 204.5 113.9 12 1.4 23.9 2.1 35.8 2.1 68.6 0 134.8-22.9 189.4-66.2l-12.7-16z"></path><path d="M295.6 559.1H316v121.1h-20.4zM295.6 253.2H316v132.6h-20.4zM295.6 100.3H316v81.6h-20.4zM458.7 385.8h142.7v20.4H458.7zM244.6 385.8h40.8v20.4h-40.8zM10.1 385.8h163.1v20.4H10.1zM367 232.9h193.7v20.4H367z"></path><path d="M47.7 232.9h258.1v20.4H47.7zM499.5 538.7h64.3v20.4h-64.3zM295.6 538.7h10.2v20.4h-10.2zM61.1 538.7h234.5v20.4H61.1z"></path><path d="M223.6 117l-17.5-10.5c-107.2 178.6-107.2 400.4 0 579l17.5-10.5c-103.3-172.1-103.3-385.9 0-558zM435.5 576.1c-12.1 34.4-27.8 67.6-46.6 98.9l17.5 10.5c19.5-32.4 35.8-66.9 48.4-102.6l-19.3-6.8zM406.3 106.5L388.8 117c50.6 84.3 77.4 180.7 77.4 279h20.4c0-102-27.8-202.1-80.3-289.5zM377.2 345c-67.5 0-122.4 54.9-122.4 122.4s54.9 122.4 122.4 122.4 122.4-54.9 122.4-122.4S444.6 345 377.2 345zm0 224.3c-56.2 0-102-45.7-102-102s45.7-102 102-102c56.2 0 102 45.7 102 102-.1 56.3-45.8 102-102 102z"></path><path d="M316 467.4h-20.4c0 45 36.6 81.6 81.6 81.6v-20.4c-33.7-.1-61.2-27.5-61.2-61.2zM388.8 386.6l-2.9 20.2c29.9 4.3 52.4 30.3 52.4 60.6h20.4c0-40.3-30-75-69.9-80.8zM608.7 643.7L486.4 521.3 472 535.7l115.1 115.1-26.4 26.4-115.1-115.1-14.4 14.4 122.4 122.4c2 2 4.6 3 7.2 3 2.6 0 5.2-1 7.2-3l40.8-40.8c3.9-4 3.9-10.4-.1-14.4zM138 117.3c-7.7-4.5-16.5-6.8-25.4-6.8h-.7c-13.6 0-26.4 5.3-36 14.9-9.6 9.6-15 22.4-15 36 0 9.3 2.5 18.4 7.3 26.4l35.7 60.4c1.8 3.1 5.2 5 8.8 5h.1c3.6 0 7-2 8.8-5.1l35.1-61.2c14-24.3 5.7-55.5-18.7-69.6zm1 59.5l-26.4 46-26.8-45.4s0-.1-.1-.1c-2.9-4.8-4.4-10.3-4.4-15.9 0-8.2 3.2-15.9 9-21.6 5.8-5.8 13.4-8.9 21.7-8.9h.1c5.2.1 10.9 1.3 15.7 4.1 14.6 8.4 19.7 27.2 11.2 41.8z"></path><path d="M101.7 151.3h20.4v20.4h-20.4zM263 362.4c-3.5-13.2-12-24.2-23.8-31-7.6-4.4-16.4-6.8-25.1-6.8-13.6-.2-26.5 4.9-36.3 14.3-9.8 9.5-15.3 22.2-15.5 35.8-.2 9.6 2.4 19 7.3 27.2l35.6 60.4c1.8 3.1 5.2 5 8.8 5h.1c3.6 0 7-2 8.8-5.1l35.1-61.1c6.7-11.8 8.6-25.5 5-38.7zm-22.7 28.5L214 436.8l-26.7-45.3s0-.1-.1-.1c-3-4.9-4.5-10.6-4.4-16.4.1-8.2 3.4-15.8 9.3-21.5 5.8-5.6 13.3-8.6 21.4-8.6h.5c5.3 0 10.5 1.4 15.1 4.1 14.6 8.5 19.6 27.3 11.2 41.9z"></path><path d="M203.1 365.4h20.4v20.4h-20.4zM385.4 199.3c-3.5-13.2-12-24.2-23.7-31-7.6-4.4-16.4-6.8-25.1-6.8-13.2-.2-26.5 4.9-36.3 14.3-9.8 9.5-15.3 22.2-15.5 35.8-.2 9.6 2.4 19 7.3 27.2l35.6 60.4c1.8 3.1 5.2 5 8.8 5h.1c3.6 0 7-2 8.8-5.1l35.1-61.2c6.6-11.8 8.4-25.5 4.9-38.6zm-22.8 28.5l-26.3 46-26.7-45.3s0-.1-.1-.1c-3-4.9-4.5-10.6-4.4-16.4.1-8.2 3.4-15.8 9.3-21.5 5.8-5.6 13.3-8.6 21.4-8.6h.6c5.3 0 10.5 1.4 15.1 4.1 14.5 8.4 19.6 27.1 11.1 41.8z"></path><path d="M325.5 202.3h20.4v20.4h-20.4z"></path></svg><svg viewBox="0 130.8 612 530.4" width="612" height="530.4" id="outsize-cargo" y="6760"><path d="M173.4 192c-73.1 0-132.6 59.5-132.6 132.6s59.5 132.6 132.6 132.6S306 397.7 306 324.6 246.5 192 173.4 192zm0 244.8c-61.9 0-112.2-50.3-112.2-112.2s50.3-112.2 112.2-112.2 112.2 50.3 112.2 112.2c0 61.9-50.3 112.2-112.2 112.2z"></path><path d="M173.4 130.8c-22.5 0-40.8 18.3-40.8 40.8s18.3 40.8 40.8 40.8 40.8-18.3 40.8-40.8-18.3-40.8-40.8-40.8zm0 61.2c-11.3 0-20.4-9.1-20.4-20.4 0-11.3 9.1-20.4 20.4-20.4 11.3 0 20.4 9.1 20.4 20.4 0 11.3-9.1 20.4-20.4 20.4z"></path><path d="M163.2 171.6h20.4v30.6h-20.4zM98.992 225.562l-14.425 14.425-20.364-20.364 14.425-14.425z"></path><path d="M98.974 199.232l-40.8 40.8-14.424-14.425 40.8-40.8zM282.575 219.593l-20.365 20.364-14.425-14.425 20.365-20.364z"></path><path d="M302.987 225.569l-14.425 14.425-40.8-40.8 14.425-14.425z"></path><circle cx="173.4" cy="324.6" r="20.4"></circle><path d="M233.045 248.436l-50.967 81.587-17.301-10.808 50.966-81.587zM163.2 232.8h20.4v20.4h-20.4zM163.2 396h20.4v20.4h-20.4zM146.57 257.75l-17.663 10.208-10.208-17.663 17.662-10.208zM228.173 398.953l-17.66 10.213-10.212-17.66 17.66-10.213zM116.7 280.085l-10.208 17.662L88.83 287.54l10.208-17.662zM257.934 361.591l-10.208 17.662-17.662-10.208 10.208-17.662zM81.6 314.4H102v20.4H81.6zM244.8 314.4h20.4v20.4h-20.4zM116.702 369.079l-17.66 10.21-10.21-17.66 17.66-10.21zM257.974 287.493l-17.66 10.21-10.21-17.66 17.66-10.21zM146.44 391.59l-10.202 17.666-17.667-10.202 10.202-17.666zM132.6 538.8c-33.8 0-61.2 27.4-61.2 61.2s27.4 61.2 61.2 61.2 61.2-27.4 61.2-61.2c0-33.8-27.4-61.2-61.2-61.2zm0 102c-22.5 0-40.8-18.3-40.8-40.8 0-22.5 18.3-40.8 40.8-40.8s40.8 18.3 40.8 40.8c0 22.5-18.3 40.8-40.8 40.8z"></path><path d="M122.4 589.8h20.4v20.4h-20.4zM479.4 538.8c-33.8 0-61.2 27.4-61.2 61.2s27.4 61.2 61.2 61.2 61.2-27.4 61.2-61.2c0-33.8-27.4-61.2-61.2-61.2zm0 102c-22.5 0-40.8-18.3-40.8-40.8 0-22.5 18.3-40.8 40.8-40.8 22.5 0 40.8 18.3 40.8 40.8 0 22.5-18.3 40.8-40.8 40.8z"></path><path d="M469.2 589.8h20.4v20.4h-20.4zM183.6 589.8h244.8v20.4H183.6zM607.7 479.5L539 430.4l-45.3-135.9c-4.2-12.5-15.8-21-29-21H295.8V294h168.9c4.4 0 8.3 2.8 9.7 7l46.3 139c.7 2 2 3.8 3.8 5.1l67.1 47.9v96.7h-61.2v20.4h71.4c5.6 0 10.2-4.6 10.2-10.2V487.8c0-3.3-1.6-6.4-4.3-8.3zM20.4 589.8V298.1c0-2.3 1.8-4.1 4.1-4.1h36.7v-20.4H24.5C11 273.6 0 284.6 0 298.1V600c0 5.6 4.6 10.2 10.2 10.2h71.4v-20.4H20.4z"></path><path d="M561 549h40.8v20.4H561zM10.2 549h61.2v20.4H10.2zM438.6 426.6c-5.6 0-10.2-4.6-10.2-10.2V345c0-5.6 4.6-10.2 10.2-10.2h51v-20.4h-51c-16.9 0-30.6 13.7-30.6 30.6v71.4c0 16.9 13.7 30.6 30.6 30.6h91.8v-20.4h-91.8zM428.4 467.4h40.8v20.4h-40.8zM204 549h193.8v20.4H204zM10.2 426.6H51V447H10.2z"></path></svg><svg viewBox="0 90 612 612" width="612" height="612" id="responsibility" y="7291"><path d="M559.4 634.8l-81-195.6c-2.1-5-7.8-7.4-12.8-5.3-5 2.1-7.4 7.8-5.3 12.8l73.2 176.8-66.8-19.4c-4.4-1.3-9.1.7-11.3 4.7l-33.6 60.9L343.3 480c90.7-17.5 159.4-97.5 159.4-193.2C502.8 178.3 414.5 90 306 90s-196.8 88.3-196.8 196.8c0 43.9 14.5 84.6 38.9 117.4L52.6 634.8c-1.4 3.5-.8 7.5 1.7 10.3 2.5 2.8 6.4 3.9 10 2.9l78.8-22.8 39.6 71.9c1.7 3.1 5 5.1 8.6 5.1h.5c3.7-.2 7-2.5 8.5-6l75.7-183c2.1-5-.3-10.7-5.3-12.8-5-2.1-10.7.3-12.8 5.3l-67.9 164-33.6-60.9c-2.2-4-6.9-5.9-11.3-4.7l-66.8 19.4 84-202.5c35.9 38.4 87.1 62.5 143.7 62.5 5.8 0 11.6-.3 17.4-.8L411.7 696c1.4 3.5 4.7 5.8 8.5 6h.5c3.5 0 6.8-1.9 8.6-5.1l39.6-71.9 78.8 22.8c3.6 1 7.5-.1 10-2.9 2.4-2.7 3.1-6.6 1.7-10.1zm-430.6-348c0-97.7 79.5-177.2 177.2-177.2S483.2 189 483.2 286.8 403.7 464 306 464s-177.2-79.5-177.2-177.2z"></path><path d="M418.8 250.1c-1.1-3.5-4.1-6-7.7-6.6l-65.7-11-30.8-59.1c-1.7-3.2-5-5.3-8.7-5.3-3.6 0-7 2-8.7 5.3l-30.8 59.1-65.7 11c-3.6.6-6.5 3.2-7.7 6.6-1.1 3.5-.2 7.3 2.3 9.9l46.7 47.5-9.8 65.9c-.5 3.6 1 7.2 3.9 9.3 2.9 2.1 6.8 2.5 10.1.8l59.6-29.7 59.6 29.7c1.4.7 2.9 1 4.4 1 2 0 4-.6 5.7-1.9 2.9-2.1 4.5-5.7 3.9-9.3l-9.8-65.9 46.7-47.5c2.8-2.5 3.7-6.3 2.5-9.8zm-66.3 47.2c-2.1 2.2-3.1 5.3-2.7 8.3l7.8 52.2-47.2-23.5c-1.4-.7-2.9-1-4.4-1-1.5 0-3 .3-4.4 1l-47.2 23.5 7.8-52.2c.5-3-.5-6.1-2.7-8.3l-37-37.6 52-8.7c3-.5 5.6-2.4 7-5.1L306 199l24.4 46.8c1.4 2.7 4 4.6 7 5.1l52 8.7-36.9 37.7z"></path><path d="M453.9 296.6c-5.3-.7-10.3 3.1-11 8.4-9 68.4-67.9 120-136.9 120-76.2 0-138.2-62-138.2-138.2s62-138.2 138.2-138.2c69 0 127.9 51.6 137 119.9.7 5.3 5.6 9.1 11 8.4 5.3-.7 9.1-5.6 8.4-11-10.3-78-77.5-136.9-156.3-136.9-87 0-157.7 70.7-157.7 157.7S219 444.5 306 444.5c78.8 0 146-58.9 156.3-136.9.7-5.4-3-10.3-8.4-11z"></path></svg></svg>