<?xml version="1.0" encoding="utf-8"?>
<!-- Generator: Adobe Illustrator 17.1.0, SVG Export Plug-In . SVG Version: 6.00 Build 0)  -->
<!DOCTYPE svg PUBLIC "-//W3C//DTD SVG 1.1//EN" "http://www.w3.org/Graphics/SVG/1.1/DTD/svg11.dtd">
<svg version="1.1" id="Capa_1" xmlns="http://www.w3.org/2000/svg" xmlns:xlink="http://www.w3.org/1999/xlink" x="0px" y="0px"
	 viewBox="0 90 612 612" enable-background="new 0 90 612 612" xml:space="preserve">
<g>
	<g>
		<path d="M306,90C144.3,90,12.8,221.6,12.8,383.2S144.3,676.5,306,676.5c7,0,12.8-5.7,12.8-12.8S313,651,306,651
			C158.4,651,38.3,530.9,38.3,383.2S158.4,115.5,306,115.5s267.8,120.1,267.8,267.8c0,52.2-15.1,102.9-43.5,146.4
			c-3.9,5.9-2.2,13.8,3.7,17.6c5.8,3.8,13.8,2.2,17.6-3.7c31.2-47.7,47.7-103.1,47.7-160.4C599.2,221.6,467.7,90,306,90z"/>
	</g>
</g>
<g>
	<g>
		<path d="M443.5,273.3c-4.4-5.5-12.4-6.4-17.9-2l-106.8,85.4v-203c0-7-5.7-12.8-12.8-12.8s-12.8,5.7-12.8,12.8v229.5
			c0,4.9,2.8,9.4,7.2,11.5c1.8,0.8,3.7,1.2,5.5,1.2c2.8,0,5.7-0.9,8-2.8l127.5-102C447,286.8,447.9,278.8,443.5,273.3z"/>
	</g>
</g>
<g>
	<g>
		<path d="M357,523.5h-27.2l37.8-56.7c3.9-5.9,2.3-13.8-3.5-17.7c-5.8-3.9-13.7-2.3-17.7,3.5l-51,76.5c-2.6,3.9-2.9,8.9-0.6,13.1
			c2.2,4.1,6.5,6.7,11.2,6.7h38.3v12.8c0,7,5.7,12.8,12.8,12.8s12.8-5.7,12.8-12.8v-25.5C369.7,529.2,364,523.5,357,523.5z"/>
	</g>
</g>
<g>
	<g>
		<path d="M280.5,549h-20.2l11.2-11.2c14-14,21.8-32.7,21.8-52.5c0-21.1-17.2-38.3-38.3-38.3s-38.3,17.2-38.3,38.3
			c0,7,5.7,12.8,12.8,12.8c7,0,12.8-5.7,12.8-12.8c0-7,5.7-12.7,12.7-12.7c7,0,12.8,5.7,12.8,12.8c0,13-5.1,25.2-14.3,34.5l-33,33
			c-3.6,3.6-4.7,9.1-2.8,13.9c2,4.8,6.6,7.9,11.8,7.9h51c7,0,12.8-5.7,12.8-12.8C293.3,554.7,287.5,549,280.5,549z"/>
	</g>
</g>
<g>
	<g>
		<path d="M464.2,448.1c-6.5-2.8-14,0-16.8,6.5l-102,229.5c-2.9,6.4,0.1,14,6.5,16.8c1.7,0.7,3.4,1.1,5.2,1.1
			c4.9,0,9.5-2.8,11.7-7.6l102-229.5C473.5,458.5,470.6,451,464.2,448.1z"/>
	</g>
</g>
<g>
	<g>
		<path d="M520.9,580.5c-2.3-3.7-6.5-6-10.9-6h-51c-7,0-12.8,5.7-12.8,12.8S452,600,459,600h30.4l-41.8,83.5
			c-3.1,6.3-0.6,13.9,5.7,17.1c1.9,0.9,3.8,1.4,5.7,1.4c4.7,0,9.2-2.6,11.4-7.1l51-102C523.4,589,523.2,584.3,520.9,580.5z"/>
	</g>
</g>
</svg>
