<?xml version="1.0" encoding="utf-8"?>
<!DOCTYPE svg PUBLIC "-//W3C//DTD SVG 1.1//EN" "http://www.w3.org/Graphics/SVG/1.1/DTD/svg11.dtd">
<svg version="1.1" id="Capa_1" xmlns="http://www.w3.org/2000/svg" xmlns:xlink="http://www.w3.org/1999/xlink" x="0px" y="0px"
	 viewBox="0 90 612 612" enable-background="new 0 90 612 612" xml:space="preserve">
<g>
	<g>
		<path d="M582.8,448.5h-9.2V366c0-13.1-6.5-24.6-16.4-31.6v-11.2c0-16.3-13.3-29.5-29.5-29.5h-6.8l26.2-38.4
			c8.8-12.9,5.4-30.5-7.4-39.2L362,94.9c-6.2-4.2-13.7-5.8-21.2-4.4c-7.4,1.4-13.8,5.6-18.1,11.8L169.6,327.2h-42.6l10.3-104.1
			c0.1-1.2,0.9-2.2,1.9-2.6c13.3-5,24.7-14.3,32.3-26.3c0.6-0.9,1.7-1.5,2.9-1.4l66.9,6.6c4.8,0.5,9.1-3,9.5-7.8
			c0.5-4.8-3-9.1-7.8-9.5l-66.9-6.6c-7.8-0.8-15.2,2.8-19.3,9.4c-5.6,8.8-14,15.6-23.8,19.3c-7.3,2.8-12.4,9.4-13.1,17.2
			l-10.5,105.9H98.3l16.3-164.7c0.6-5.9,5.9-10.3,11.8-9.7l135.2,13.4c4.8,0.5,9.1-3,9.5-7.8s-3-9.1-7.8-9.5l-135.2-13.4
			c-15.5-1.5-29.4,9.8-30.9,25.3L84.1,293.5H61.7c-16.3,0-29.5,13.3-29.5,29.5v7.7C18.9,336.9,9.6,350.4,9.6,366v297.3
			C9.6,684.6,27,702,48.3,702h486.6c21.4,0,38.8-17.4,38.8-38.8v-82.5h9.2c10.8,0,19.6-8.8,19.6-19.6v-93.1
			C602.4,457.3,593.6,448.5,582.8,448.5z M527.7,311L527.7,311c6.7,0,12.1,5.4,12.1,12.1v4.4c-1.6-0.2-3.2-0.3-4.9-0.3h-37L509,311
			H527.7z M337.2,112.2c1.6-2.4,4.1-4,6.9-4.5c0.7-0.1,1.4-0.2,2-0.2c2.1,0,4.2,0.6,6.1,1.9l177.5,121c4.9,3.4,6.2,10.1,2.8,15
			l-55.8,81.9h-13.4l27.4-40.1c4.4-6.5,4.8-14.8,1-21.6c-5.1-9.1-7.2-19.8-5.8-30.1c1-7.7-2.4-15.2-8.8-19.6l-92-62.7
			c-6.4-4.4-14.7-4.8-21.4-1.1c-9.1,5-19.8,7-30.1,5.6c-7.6-1.1-15.4,2.4-19.8,8.8L204.1,327.2h-13.4L337.2,112.2z M341,260.3
			c-38,0-69.2,29.6-71.7,67h-44.2l102.9-151c0,0,0,0,0,0c0.6-0.9,1.6-1.4,2.5-1.4c0.1,0,0.3,0,0.4,0c14,2,28.6-0.7,41-7.6
			c1-0.5,2.2-0.5,3.2,0.2l92,62.7c1,0.7,1.5,1.8,1.3,2.9c-1.8,14,1,28.6,7.9,40.9c0.6,1,0.5,2.3-0.2,3.2l-34.1,50h-29.6
			C410.2,289.9,379,260.3,341,260.3z M395.3,327.2H286.8c2.5-27.7,25.8-49.5,54.2-49.5C369.4,277.7,392.8,299.5,395.3,327.2z
			 M49.6,323.1c0-6.7,5.4-12.1,12.1-12.1h20.6l-1.6,16.2H49.6V323.1z M27,366c0-11.8,9.6-21.3,21.3-21.3h486.6
			c11.8,0,21.3,9.6,21.3,21.3v24.2H27V366z M556.2,663.2c0,11.8-9.6,21.3-21.3,21.3H48.3c-11.8,0-21.3-9.6-21.3-21.3V639h47
			c4.8,0,8.7-3.9,8.7-8.7s-3.9-8.7-8.7-8.7H27v-214h529.2v40.9h-82.9h0c-26.1,0-48.8,15.2-59.5,37.3c0,0.1-0.1,0.1-0.1,0.2
			c-0.1,0.2-0.2,0.4-0.3,0.6c-1.3,2.7-2.4,5.5-3.3,8.4c0,0,0,0,0,0c-1.9,6.2-3,12.8-3,19.6c0,36.5,29.7,66.1,66.1,66.1h0h82.9v40.9
			H129.9c-4.8,0-8.7,3.9-8.7,8.7s3.9,8.7,8.7,8.7h426.3V663.2z M585,561.1c0,1.2-1,2.2-2.2,2.2H473.3c-18.5,0-34.6-10.3-42.8-25.5
			c-0.4-0.7-0.7-1.4-1.1-2.1c-0.7-1.4-1.3-2.9-1.8-4.4c-1.9-5.2-3-10.9-3-16.7c0-5.9,1-11.5,3-16.7c0.5-1.5,1.2-2.9,1.8-4.4
			c0.3-0.7,0.7-1.4,1.1-2.1c8.3-15.2,24.4-25.5,42.8-25.5h109.5c1.2,0,2.2,1,2.2,2.2V561.1L585,561.1z"/>
	</g>
</g>
<g>
	<g>
		<path d="M475.4,479.2c-19.5,0-35.4,15.9-35.4,35.4s15.9,35.4,35.4,35.4c19.5,0,35.4-15.9,35.4-35.4S494.9,479.2,475.4,479.2z
			 M475.4,532.5c-9.9,0-17.9-8-17.9-17.9c0-9.9,8-17.9,17.9-17.9c9.9,0,17.9,8,17.9,17.9C493.3,524.5,485.2,532.5,475.4,532.5z"/>
	</g>
</g>
</svg>
