<?xml version="1.0" encoding="utf-8"?>
<!-- Generator: Adobe Illustrator 17.1.0, SVG Export Plug-In . SVG Version: 6.00 Build 0)  -->
<!DOCTYPE svg PUBLIC "-//W3C//DTD SVG 1.1//EN" "http://www.w3.org/Graphics/SVG/1.1/DTD/svg11.dtd">
<svg version="1.1" class='ss' id="Capa_1" xmlns="http://www.w3.org/2000/svg" xmlns:xlink="http://www.w3.org/1999/xlink" x="0px" y="0px"
	 viewBox="0 222.6 612 346.8" enable-background="new 0 222.6 612 346.8" xml:space="preserve">
<g>
	<g>
		<path d="M605.6,447.7l-46.9-18.8L539.9,382c-1.6-3.9-5.3-6.4-9.5-6.4H459c-5.6,0-10.2,4.6-10.2,10.2v153c0,5.6,4.6,10.2,10.2,10.2
			h30.6v-20.4h-20.4V396h54.3l17.8,44.6c1,2.6,3.1,4.7,5.7,5.7l44.6,17.8v64.5h-40.8V549h51c5.6,0,10.2-4.6,10.2-10.2v-81.6
			C612,453,609.5,449.3,605.6,447.7z"/>
	</g>
</g>
<g>
	<g>
		<path d="M520.2,487.8c-22.5,0-40.8,18.3-40.8,40.8c0,22.5,18.3,40.8,40.8,40.8c22.5,0,40.8-18.3,40.8-40.8
			C561,506.1,542.7,487.8,520.2,487.8z M520.2,549c-11.3,0-20.4-9.1-20.4-20.4s9.1-20.4,20.4-20.4s20.4,9.1,20.4,20.4
			S531.5,549,520.2,549z"/>
	</g>
</g>
<g>
	<g>
		<path d="M377.4,487.8c-22.5,0-40.8,18.3-40.8,40.8c0,22.5,18.3,40.8,40.8,40.8c22.5,0,40.8-18.3,40.8-40.8
			C418.2,506.1,399.9,487.8,377.4,487.8z M377.4,549c-11.3,0-20.4-9.1-20.4-20.4s9.1-20.4,20.4-20.4c11.3,0,20.4,9.1,20.4,20.4
			S388.7,549,377.4,549z"/>
	</g>
</g>
<g>
	<g>
		<path d="M61.2,487.8c-22.5,0-40.8,18.3-40.8,40.8c0,22.5,18.3,40.8,40.8,40.8s40.8-18.3,40.8-40.8
			C102,506.1,83.7,487.8,61.2,487.8z M61.2,549c-11.3,0-20.4-9.1-20.4-20.4s9.1-20.4,20.4-20.4c11.3,0,20.4,9.1,20.4,20.4
			S72.5,549,61.2,549z"/>
	</g>
</g>
<g>
	<g>
		<path d="M163.2,487.8c-22.5,0-40.8,18.3-40.8,40.8c0,22.5,18.3,40.8,40.8,40.8s40.8-18.3,40.8-40.8
			C204,506.1,185.7,487.8,163.2,487.8z M163.2,549c-11.3,0-20.4-9.1-20.4-20.4s9.1-20.4,20.4-20.4c11.3,0,20.4,9.1,20.4,20.4
			S174.5,549,163.2,549z"/>
	</g>
</g>
<g>
	<g>
		<path d="M418.2,304.2h-408c-5.6,0-10.2,4.6-10.2,10.2V498c0,5.6,4.6,10.2,10.2,10.2h408c5.6,0,10.2-4.6,10.2-10.2V314.4
			C428.4,308.8,423.8,304.2,418.2,304.2z M408,487.8H20.4V324.6H408L408,487.8L408,487.8z"/>
	</g>
</g>
<g>
	<g>
		<rect x="40.8" y="345" width="20.4" height="122.4"/>
	</g>
</g>
<g>
	<g>
		<rect x="81.6" y="345" width="20.4" height="122.4"/>
	</g>
</g>
<g>
	<g>
		<rect x="122.4" y="345" width="20.4" height="122.4"/>
	</g>
</g>
<g>
	<g>
		<rect x="163.2" y="345" width="20.4" height="122.4"/>
	</g>
</g>
<g>
	<g>
		<rect x="204" y="345" width="20.4" height="122.4"/>
	</g>
</g>
<g>
	<g>
		<rect x="244.8" y="345" width="20.4" height="122.4"/>
	</g>
</g>
<g>
	<g>
		<rect x="285.6" y="345" width="20.4" height="122.4"/>
	</g>
</g>
<g>
	<g>
		<rect x="326.4" y="345" width="20.4" height="122.4"/>
	</g>
</g>
<g>
	<g>
		<rect x="367.2" y="345" width="20.4" height="122.4"/>
	</g>
</g>
<g>
	<g>
		<rect y="222.6" width="30.6" height="20.4"/>
	</g>
</g>
<g>
	<g>
		<rect x="51" y="222.6" width="91.8" height="20.4"/>
	</g>
</g>
<g>
	<g>
		<rect x="81.6" y="263.4" width="153" height="20.4"/>
	</g>
</g>
<g>
	<g>
		<rect x="408" y="528.6" width="51" height="20.4"/>
	</g>
</g>
<g>
	<g>
		<rect x="418.2" y="487.8" width="40.8" height="20.4"/>
	</g>
</g>
<g>
	<g>
		<rect x="91.8" y="528.6" width="40.8" height="20.4"/>
	</g>
</g>
</svg>
