<?xml version="1.0" encoding="utf-8"?>

<!DOCTYPE svg PUBLIC "-//W3C//DTD SVG 1.1//EN" "http://www.w3.org/Graphics/SVG/1.1/DTD/svg11.dtd">
<svg version="1.1" id="Capa_1" xmlns="http://www.w3.org/2000/svg" xmlns:xlink="http://www.w3.org/1999/xlink" x="0px" y="0px"
	 viewBox="0 90 612 612" enable-background="new 0 90 612 612" xml:space="preserve">
<g>
	<g>
		<path d="M275.4,538.8c-45,0-81.6,36.6-81.6,81.6s36.6,81.6,81.6,81.6s81.6-36.6,81.6-81.6S320.4,538.8,275.4,538.8z M275.4,681.6
			c-33.8,0-61.2-27.4-61.2-61.2c0-33.8,27.4-61.2,61.2-61.2s61.2,27.4,61.2,61.2C336.6,654.2,309.2,681.6,275.4,681.6z"/>
	</g>
</g>
<g>
	<g>
		<path d="M61.2,579.6C27.4,579.6,0,607,0,640.8S27.4,702,61.2,702s61.2-27.4,61.2-61.2S95,579.6,61.2,579.6z M61.2,681.6
			c-22.5,0-40.8-18.3-40.8-40.8c0-22.5,18.3-40.8,40.8-40.8s40.8,18.3,40.8,40.8C102,663.3,83.7,681.6,61.2,681.6z"/>
	</g>
</g>
<g>
	<g>
		<path d="M601.8,406.2H428.4c-5.6,0-10.2,4.6-10.2,10.2v163.2c0,5.6,4.6,10.2,10.2,10.2h173.4c5.6,0,10.2-4.6,10.2-10.2V416.4
			C612,410.8,607.4,406.2,601.8,406.2z M591.6,569.4h-153V426.6h153V569.4z"/>
	</g>
</g>
<g>
	<g>
		<path d="M540.6,406.2h-51c-5.6,0-10.2,4.6-10.2,10.2v61.2c0,5.6,4.6,10.2,10.2,10.2h51c5.6,0,10.2-4.6,10.2-10.2v-61.2
			C550.8,410.8,546.2,406.2,540.6,406.2z M530.4,467.4h-30.6v-40.8h30.6V467.4z"/>
	</g>
</g>
<g>
	<g>
		<rect x="102" y="661.2" width="122.4" height="20.4"/>
	</g>
</g>
<g>
	<g>
		<path d="M339.6,490.8l-48,48h-33.6l-79.1-49.5c-1.6-1-3.5-1.6-5.4-1.6H10.2C4.6,487.8,0,492.4,0,498v142.8h20.4V508.2h150.1
			l79.1,49.5c1.6,1,3.5,1.6,5.4,1.6h40.8c2.7,0,5.3-1.1,7.2-3l51-51L339.6,490.8z"/>
	</g>
</g>
<g>
	<g>
		<path d="M355.9,462.8L252.2,255.4c-6.9-13.9-20.9-22.6-36.5-22.6H30.6C13.7,232.8,0,246.5,0,263.4V498h20.4V263.4
			c0-5.6,4.6-10.2,10.2-10.2h185.1c7.8,0,14.8,4.3,18.2,11.3l102.7,205.3v150.6H357v-153C357,465.8,356.6,464.2,355.9,462.8z"/>
	</g>
</g>
<g>
	<g>
		<path d="M275.4,589.8c-16.9,0-30.6,13.7-30.6,30.6s13.7,30.6,30.6,30.6s30.6-13.7,30.6-30.6S292.3,589.8,275.4,589.8z
			 M275.4,630.6c-5.6,0-10.2-4.6-10.2-10.2c0-5.6,4.6-10.2,10.2-10.2s10.2,4.6,10.2,10.2C285.6,626,281,630.6,275.4,630.6z"/>
	</g>
</g>
<g>
	<g>
		<path d="M173.4,447H102v-81.6c0-16.9-13.7-30.6-30.6-30.6s-30.6,13.7-30.6,30.6V498h20.4V365.4c0-5.6,4.6-10.2,10.2-10.2
			c5.6,0,10.2,4.6,10.2,10.2v91.8c0,5.6,4.6,10.2,10.2,10.2h81.6c5.6,0,10.2,4.6,10.2,10.2s-4.6,10.2-10.2,10.2h-10.2v20.4h10.2
			c16.9,0,30.6-13.7,30.6-30.6S190.3,447,173.4,447z"/>
	</g>
</g>
<g>
	<g>
		<rect x="193.4" y="390.9" transform="matrix(-0.7071 0.7071 -0.7071 -0.7071 675.3751 522.4605)" width="72.1" height="20.4"/>
	</g>
</g>
<g>
	<g>
		<rect x="275.4" y="385.1" transform="matrix(-0.7071 0.7071 -0.7071 -0.7071 810.8019 578.5366)" width="20.4" height="144.2"/>
	</g>
</g>
<g>
	<g>
		<path d="M387.6,90h-40.8c-5.6,0-10.2,4.6-10.2,10.2v571.2c0,5.6,4.6,10.2,10.2,10.2h40.8c5.6,0,10.2-4.6,10.2-10.2V100.2
			C397.8,94.6,393.2,90,387.6,90z M377.4,661.2H357V110.4h20.4V661.2z"/>
	</g>
</g>
<g>
	<g>
		<rect x="387.6" y="610.2" width="224.4" height="20.4"/>
	</g>
</g>
<g>
	<g>
		<rect x="51" y="630.6" width="20.4" height="20.4"/>
	</g>
</g>
</svg>
