<?xml version="1.0" encoding="utf-8"?>

<!DOCTYPE svg PUBLIC "-//W3C//DTD SVG 1.1//EN" "http://www.w3.org/Graphics/SVG/1.1/DTD/svg11.dtd">
<svg version="1.1" id="Layer_1" xmlns="http://www.w3.org/2000/svg" xmlns:xlink="http://www.w3.org/1999/xlink" x="0px" y="0px"
	 viewBox="0 202.4 612 387.1" enable-background="new 0 202.4 612 387.1" xml:space="preserve">
<g>
	<g>
		<path d="M569.2,366.6l-15.8-63.4c4.3-0.9,7.6-4.8,7.6-9.4v-10.2c0-22.2-18.1-40.2-40.2-40.2h-72.2v-21.1
			c0-10.9-8.9-19.8-19.8-19.8h-368c-10.9,0-19.8,8.9-19.8,19.8V396c0,5.3,4.3,9.6,9.6,9.6c5.3,0,9.6-4.3,9.6-9.6V222.2
			c0-0.4,0.3-0.6,0.6-0.6h368c0.4,0,0.6,0.3,0.6,0.6V396c0,5.3,4.3,9.6,9.6,9.6c5.3,0,9.6-4.3,9.6-9.6v-10.9h113c0,0,0,0,0,0
			c0,0,0,0,0,0c13.9,0,25.7,9.1,29.8,21.7h-29.8c-5.3,0-9.6,4.3-9.6,9.6v20.4c0,16.6,13.5,30,30,30h10.9v42.2h-25.1
			c-8.2-23.8-30.8-40.9-57.4-40.9c-26.5,0-49.1,17.1-57.4,40.9h-4.6v-72.2c0-5.3-4.3-9.6-9.6-9.6c-5.3,0-9.6,4.3-9.6,9.6v72.2H230.5
			c-8.2-23.8-30.8-40.9-57.4-40.9s-49.1,17.1-57.4,40.9H60.7c-0.4,0-0.6-0.3-0.6-0.6v-21.1h41.5c5.3,0,9.6-4.3,9.6-9.6
			s-4.3-9.6-9.6-9.6h-92c-5.3,0-9.6,4.3-9.6,9.6s4.3,9.6,9.6,9.6h31.3v21.1c0,10.9,8.9,19.8,19.8,19.8h51.8c0,0.2,0,0.4,0,0.6
			c0,33.5,27.2,60.7,60.7,60.7s60.7-27.2,60.7-60.7c0-0.2,0-0.4,0-0.6h216c0,0.2,0,0.4,0,0.6c0,33.5,27.2,60.7,60.7,60.7
			s60.7-27.2,60.7-60.7c0-0.2,0-0.4,0-0.6h31.3c5.3,0,9.6-4.3,9.6-9.6V416.4C612,391.2,593.4,370.2,569.2,366.6z M448.5,262.5h72.2
			c11.6,0,21.1,9.5,21.1,21.1v0.6h-93.3V262.5z M448.5,366v-62.6h85.1l15.7,62.6L448.5,366L448.5,366z M173.1,570.4
			c-22.9,0-41.5-18.6-41.5-41.5s18.6-41.5,41.5-41.5s41.5,18.6,41.5,41.5S196,570.4,173.1,570.4z M510.4,570.4
			c-22.9,0-41.5-18.6-41.5-41.5s18.6-41.5,41.5-41.5c22.9,0,41.5,18.6,41.5,41.5S533.3,570.4,510.4,570.4z M592.8,447.7H582
			c-6,0-10.9-4.9-10.9-10.9V426h21.7L592.8,447.7L592.8,447.7z"/>
	</g>
</g>
<g>
	<g>
		<path d="M173.1,509.1c-10.9,0-19.8,8.9-19.8,19.8s8.9,19.8,19.8,19.8c10.9,0,19.8-8.9,19.8-19.8C192.9,518,184,509.1,173.1,509.1z
			"/>
	</g>
</g>
<g>
	<g>
		<path d="M510.4,509.1c-10.9,0-19.8,8.9-19.8,19.8s8.9,19.8,19.8,19.8c10.9,0,19.8-8.9,19.8-19.8S521.3,509.1,510.4,509.1z"/>
	</g>
</g>
<g>
	<g>
		<path d="M398,468.2H254.9c-5.3,0-9.6,4.3-9.6,9.6c0,5.3,4.3,9.6,9.6,9.6H398c5.3,0,9.6-4.3,9.6-9.6
			C407.6,472.5,403.3,468.2,398,468.2z"/>
	</g>
</g>
<g>
	<g>
		<path d="M152.7,427.3H30c-5.3,0-9.6,4.3-9.6,9.6s4.3,9.6,9.6,9.6h122.7c5.3,0,9.6-4.3,9.6-9.6S158,427.3,152.7,427.3z"/>
	</g>
</g>
<g>
	<g>
		<path d="M333.2,297.2c-3.7-3.7-9.8-3.7-13.6,0l-85.2,85.2l-44.3-44.3c-3.7-3.7-9.8-3.7-13.6,0c-3.7,3.7-3.7,9.8,0,13.6l51.1,51.1
			c1.9,1.9,4.3,2.8,6.8,2.8c2.5,0,4.9-0.9,6.8-2.8l92-92C337,307,337,301,333.2,297.2z"/>
	</g>
</g>
</svg>
