<?xml version="1.0" encoding="utf-8"?>
<!-- Generator: Adobe Illustrator 17.1.0, SVG Export Plug-In . SVG Version: 6.00 Build 0)  -->
<!DOCTYPE svg PUBLIC "-//W3C//DTD SVG 1.1//EN" "http://www.w3.org/Graphics/SVG/1.1/DTD/svg11.dtd">
<svg version="1.1" id="Capa_1" xmlns="http://www.w3.org/2000/svg" xmlns:xlink="http://www.w3.org/1999/xlink" x="0px" y="0px"
	 viewBox="0 2.6 79.5 76.9" enable-background="new 0 2.6 79.5 76.9" xml:space="preserve">
<g>
	<path fill="#010002" d="M39.8,2.6L0,32.3v47.2h79.5V32.3L39.8,2.6z M28.8,23.8c1.2-2.1,2.8-3.7,4.8-4.8c2-1.1,4.4-1.6,7-1.6
		c2.2,0,4.2,0.4,5.9,1.3c1.7,0.9,3,2.1,4,3.7c0.9,1.6,1.4,3.3,1.4,5.2c0,2.2-0.7,4.3-2.1,6.1c-1.7,2.3-4,3.4-6.7,3.4
		c-0.7,0-1.3-0.1-1.7-0.4c-0.4-0.3-0.6-0.6-0.7-1.1c-1,1-2.2,1.5-3.6,1.5c-1.5,0-2.7-0.5-3.6-1.5c-1-1-1.4-2.4-1.4-4
		c0-2.1,0.6-4,1.7-5.7c1.4-2.1,3.2-3.1,5.4-3.1c1.6,0,2.7,0.6,3.5,1.8l0.3-1.5h3.5l-2,9.5c-0.1,0.6-0.2,1-0.2,1.2
		c0,0.2,0.1,0.4,0.1,0.5c0.1,0.1,0.2,0.2,0.4,0.2c0.4,0,1-0.2,1.6-0.8c0.9-0.7,1.6-1.6,2.2-2.7c0.6-1.1,0.8-2.3,0.8-3.5
		c0-2.2-0.8-4-2.4-5.4c-1.6-1.5-3.8-2.2-6.6-2.2c-2.4,0-4.4,0.5-6.1,1.5c-1.7,1-2.9,2.3-3.8,4.1c-0.8,1.8-1.3,3.6-1.3,5.5
		c0,1.9,0.5,3.6,1.4,5.1c0.9,1.5,2.3,2.6,4,3.3c1.7,0.7,3.6,1,5.8,1c2.1,0,3.9-0.3,5.4-0.9c1.5-0.6,2.7-1.5,3.7-2.6h2.8
		c-0.9,1.8-2.2,3.2-4,4.2c-2.1,1.2-4.6,1.7-7.6,1.7c-2.9,0-5.4-0.5-7.5-1.5c-2.1-1-3.7-2.4-4.7-4.3c-1-1.9-1.5-4-1.5-6.3
		C27,28.3,27.6,26,28.8,23.8z M2.8,33.3l29.3,19.7L2.8,75.6V33.3z M5,77.2l34.7-26.9l34.7,26.9H5z M76.7,75.6L47.4,52.9l29.3-19.7
		L76.7,75.6L76.7,75.6z M41.2,26c0.5,0.5,0.7,1.3,0.7,2.3c0,0.9-0.2,1.9-0.5,2.9c-0.3,1-0.7,1.8-1.2,2.4c-0.3,0.4-0.7,0.7-1,0.8
		c-0.4,0.2-0.9,0.4-1.4,0.4c-0.7,0-1.2-0.3-1.7-0.8c-0.5-0.5-0.7-1.3-0.7-2.5c0-0.8,0.2-1.8,0.5-2.9c0.3-1.1,0.8-1.9,1.5-2.5
		c0.6-0.6,1.3-0.9,2.1-0.9C40.2,25.2,40.7,25.4,41.2,26z"/>
</g>
</svg>
