<?xml version="1.0" encoding="utf-8"?>
<!-- Generator: Adobe Illustrator 17.1.0, SVG Export Plug-In . SVG Version: 6.00 Build 0)  -->
<!DOCTYPE svg PUBLIC "-//W3C//DTD SVG 1.1//EN" "http://www.w3.org/Graphics/SVG/1.1/DTD/svg11.dtd">
<svg version="1.1" id="Capa_1" xmlns="http://www.w3.org/2000/svg" xmlns:xlink="http://www.w3.org/1999/xlink" x="0px" y="0px"
	 viewBox="0 84 612 617.7" enable-background="new 0 84 612 617.7" xml:space="preserve">
<g>
	<path d="M306,355.2c39.4,0,71.4-32,71.4-71.4s-32-71.4-71.4-71.4s-71.4,32-71.4,71.4S266.6,355.2,306,355.2z M306,232.8
		c28.1,0,51,22.9,51,51s-22.9,51-51,51s-51-22.9-51-51S277.9,232.8,306,232.8z"/>
	<path d="M304.2,648.5l156.5-226c58.7-78.2,50.2-206.9-18.2-275.2c-36.9-37-86.1-57.3-138.3-57.3s-101.4,20.3-138.3,57.3
		c-68.4,68.4-76.9,197-18.4,274.9L304.2,648.5z M180.3,161.7c33.1-33.1,77.1-51.3,123.9-51.3s90.8,18.2,123.9,51.3
		c61.7,61.7,69.3,177.9,16,248.9L304.2,612.7L164,410.3C111,339.6,118.6,223.4,180.3,161.7z"/>
	<path d="M429.6,528.7c-5.6-0.7-10.7,3.3-11.3,8.9s3.3,10.7,8.9,11.3c107.3,12.6,164.4,46.7,164.4,66.4
		c0,27.7-108.7,66.3-285.6,66.3S20.4,643,20.4,615.3c0-19.7,57.1-53.7,164.4-66.4c5.6-0.7,9.6-5.7,8.9-11.3
		c-0.7-5.6-5.7-9.6-11.3-8.9C75,541.3,0,576.9,0,615.3C0,658.4,105.1,702,306,702s306-43.6,306-86.7
		C612,576.9,537,541.3,429.6,528.7z"/>
</g>
</svg>
