<?xml version="1.0" encoding="utf-8"?>

<!DOCTYPE svg PUBLIC "-//W3C//DTD SVG 1.1//EN" "http://www.w3.org/Graphics/SVG/1.1/DTD/svg11.dtd">
<svg version="1.1" id="Layer_1" xmlns="http://www.w3.org/2000/svg" xmlns:xlink="http://www.w3.org/1999/xlink" x="0px" y="0px"
	 viewBox="0 90 612 612" enable-background="new 0 90 612 612" xml:space="preserve">
<g>
	<g>
		<path d="M588.8,568.8L468.8,448.9c-14.3-14.3-37.6-14.3-51.9,0l-31.2,31.2c-9.8,9.8-12.9,23.7-9.3,36.1L364.7,528c0,0,0,0,0,0
			c-8.4,8.4-60.4-4.5-123.3-67.4c-62.9-62.9-75.7-114.9-67.4-123.3c0,0,0,0,0,0l11.8-11.8c3.3,1,6.8,1.4,10.2,1.4
			c9.4,0,18.8-3.6,26-10.7l31.2-31.2c14.3-14.3,14.3-37.6,0-51.9L133.2,113.2c-6.9-6.9-16.2-10.8-26-10.8c-9.8,0-19,3.8-26,10.8
			l-31.2,31.2c-9.8,9.8-12.9,23.7-9.3,36.1c0,0-10,10.1-10.5,10.7c-33.2,36.9-39.4,94.9-17.4,164.3c21.5,68,68,140,130.7,202.7
			c62.8,62.8,134.8,109.2,202.7,130.7c27.3,8.7,52.8,12.9,76,12.9c38,0,69.7-11.5,92.5-34.3l6.5-6.5c3.3,0.9,6.7,1.4,10.2,1.4
			c9.8,0,19-3.8,26-10.8l31.2-31.2C603.1,606.4,603.1,583.1,588.8,568.8z M107.2,139.2l119.9,119.9L196,290.3c0,0,0,0,0,0l-0.4-0.4
			L136,230.3l-60-60L107.2,139.2z M488.9,641.8C488.9,641.8,488.9,641.8,488.9,641.8c-26.4,26.4-73.1,30.8-131.4,12.3
			c-62.5-19.8-129.2-63-187.9-121.7C110.9,473.7,67.7,407,47.9,344.5c-18.5-58.4-14.1-105,12.3-131.4l0,0l3.3-3.3l93.1,93.1
			l-8.5,8.5c0,0,0,0,0,0c-35.4,35.4,7.1,114.9,67.4,175.2c45.1,45.1,101,80.3,141.1,80.3c13.5,0,25.2-4,34.1-12.9c0,0,0,0,0,0
			l8.5-8.5l93.1,93.1L488.9,641.8z M531.6,625.9L411.7,506l31.2-31.2l119.9,119.9C562.8,594.8,531.6,626,531.6,625.9z"/>
	</g>
</g>
<g>
	<g>
		<path d="M464.8,237.2c-34.9-34.9-81.3-54.1-130.7-54.1c-10.1,0-18.4,8.2-18.4,18.4s8.2,18.4,18.4,18.4
			c39.6,0,76.8,15.4,104.7,43.4c28,28,43.4,65.2,43.4,104.7c0,10.1,8.2,18.4,18.4,18.4c10.1,0,18.4-8.2,18.4-18.4
			C518.9,318.6,499.7,272.2,464.8,237.2z"/>
	</g>
</g>
<g>
	<g>
		<path d="M530.6,171.4C478.1,118.9,408.3,90,334.1,90c-10.1,0-18.4,8.2-18.4,18.4c0,10.1,8.2,18.4,18.4,18.4
			c64.4,0,125,25.1,170.6,70.7c45.6,45.6,70.7,106.1,70.7,170.6c0,10.1,8.2,18.4,18.4,18.4c10.1,0,18.4-8.2,18.4-18.4
			C612,293.7,583.1,223.9,530.6,171.4z"/>
	</g>
</g>
<g>
	<g>
		<path d="M398.9,303.1c-17.6-17.6-40-26.9-64.9-26.9c0,0,0,0,0,0c-10.1,0-18.4,8.2-18.4,18.4c0,10.1,8.2,18.4,18.4,18.4
			c0,0,0,0,0,0c15.1,0,28.2,5.4,38.9,16.1c10.5,10.5,16.1,24,16.1,38.9c0,10.1,8.2,18.4,18.4,18.4h0c10.1,0,18.4-8.2,18.4-18.4
			C425.8,343.1,416.5,320.7,398.9,303.1z"/>
	</g>
</g>
</svg>
