<?xml version="1.0" encoding="utf-8"?>
<!-- Generator: Adobe Illustrator 17.1.0, SVG Export Plug-In . SVG Version: 6.00 Build 0)  -->
<!DOCTYPE svg PUBLIC "-//W3C//DTD SVG 1.1//EN" "http://www.w3.org/Graphics/SVG/1.1/DTD/svg11.dtd">
<svg version="1.1" id="Capa_1" xmlns="http://www.w3.org/2000/svg" xmlns:xlink="http://www.w3.org/1999/xlink" x="0px" y="0px"
	 viewBox="0 130.8 612 530.4" enable-background="new 0 130.8 612 530.4" xml:space="preserve">
<g>
	<g>
		<path d="M173.4,192c-73.1,0-132.6,59.5-132.6,132.6s59.5,132.6,132.6,132.6S306,397.7,306,324.6S246.5,192,173.4,192z
			 M173.4,436.8c-61.9,0-112.2-50.3-112.2-112.2s50.3-112.2,112.2-112.2s112.2,50.3,112.2,112.2
			C285.6,386.5,235.3,436.8,173.4,436.8z"/>
	</g>
</g>
<g>
	<g>
		<path d="M173.4,130.8c-22.5,0-40.8,18.3-40.8,40.8s18.3,40.8,40.8,40.8s40.8-18.3,40.8-40.8S195.9,130.8,173.4,130.8z M173.4,192
			c-11.3,0-20.4-9.1-20.4-20.4c0-11.3,9.1-20.4,20.4-20.4c11.3,0,20.4,9.1,20.4,20.4C193.8,182.9,184.7,192,173.4,192z"/>
	</g>
</g>
<g>
	<g>
		<rect x="163.2" y="171.6" width="20.4" height="30.6"/>
	</g>
</g>
<g>
	<g>
		<rect x="71.4" y="208.2" transform="matrix(-0.7071 0.7071 -0.7071 -0.7071 296.6972 322.2937)" width="20.4" height="28.8"/>
	</g>
</g>
<g>
	<g>
		<rect x="42.6" y="202.2" transform="matrix(-0.7071 0.7071 -0.7071 -0.7071 272.0721 312.0855)" width="57.7" height="20.4"/>
	</g>
</g>
<g>
	<g>
		<rect x="250.8" y="212.4" transform="matrix(-0.7071 0.7071 -0.7071 -0.7071 610.1035 192.4402)" width="28.8" height="20.4"/>
	</g>
</g>
<g>
	<g>
		<rect x="265.2" y="183.6" transform="matrix(-0.7071 0.7071 -0.7071 -0.7071 620.3336 167.8695)" width="20.4" height="57.7"/>
	</g>
</g>
<g>
	<g>
		<circle cx="173.4" cy="324.6" r="20.4"/>
	</g>
</g>
<g>
	<g>
		<rect x="150.8" y="273.6" transform="matrix(-0.5298 0.8481 -0.8481 -0.5298 544.9785 265.4956)" width="96.2" height="20.4"/>
	</g>
</g>
<g>
	<g>
		<rect x="163.2" y="232.8" width="20.4" height="20.4"/>
	</g>
</g>
<g>
	<g>
		<rect x="163.2" y="396" width="20.4" height="20.4"/>
	</g>
</g>
<g>
	<g>
		<rect x="122.4" y="243.8" transform="matrix(-0.8658 0.5004 -0.5004 -0.8658 374.5406 407.5825)" width="20.4" height="20.4"/>
	</g>
</g>
<g>
	<g>
		<rect x="204" y="385" transform="matrix(-0.8657 0.5006 -0.5006 -0.8657 597.5071 630.1256)" width="20.4" height="20.4"/>
	</g>
</g>
<g>
	<g>
		<rect x="92.5" y="273.6" transform="matrix(-0.5004 0.8658 -0.8658 -0.5004 399.8699 336.9081)" width="20.4" height="20.4"/>
	</g>
</g>
<g>
	<g>
		<rect x="233.8" y="355.2" transform="matrix(-0.5004 0.8658 -0.8658 -0.5004 682.4599 336.909)" width="20.4" height="20.4"/>
	</g>
</g>
<g>
	<g>
		<rect x="81.6" y="314.4" width="20.4" height="20.4"/>
	</g>
</g>
<g>
	<g>
		<rect x="244.8" y="314.4" width="20.4" height="20.4"/>
	</g>
</g>
<g>
	<g>
		<rect x="92.6" y="355.2" transform="matrix(-0.8657 0.5005 -0.5005 -0.8657 374.6434 630.2291)" width="20.4" height="20.4"/>
	</g>
</g>
<g>
	<g>
		<rect x="233.8" y="273.6" transform="matrix(-0.8657 0.5005 -0.5005 -0.8657 597.3114 407.3319)" width="20.4" height="20.4"/>
	</g>
</g>
<g>
	<g>
		<rect x="122.4" y="385.1" transform="matrix(-0.5001 0.866 -0.866 -0.5001 541.1486 478.1799)" width="20.4" height="20.4"/>
	</g>
</g>
<g>
	<g>
		<path d="M132.6,538.8c-33.8,0-61.2,27.4-61.2,61.2s27.4,61.2,61.2,61.2s61.2-27.4,61.2-61.2C193.8,566.2,166.4,538.8,132.6,538.8z
			 M132.6,640.8c-22.5,0-40.8-18.3-40.8-40.8c0-22.5,18.3-40.8,40.8-40.8s40.8,18.3,40.8,40.8C173.4,622.5,155.1,640.8,132.6,640.8z
			"/>
	</g>
</g>
<g>
	<g>
		<rect x="122.4" y="589.8" width="20.4" height="20.4"/>
	</g>
</g>
<g>
	<g>
		<path d="M479.4,538.8c-33.8,0-61.2,27.4-61.2,61.2s27.4,61.2,61.2,61.2s61.2-27.4,61.2-61.2C540.6,566.2,513.2,538.8,479.4,538.8z
			 M479.4,640.8c-22.5,0-40.8-18.3-40.8-40.8c0-22.5,18.3-40.8,40.8-40.8c22.5,0,40.8,18.3,40.8,40.8
			C520.2,622.5,501.9,640.8,479.4,640.8z"/>
	</g>
</g>
<g>
	<g>
		<rect x="469.2" y="589.8" width="20.4" height="20.4"/>
	</g>
</g>
<g>
	<g>
		<rect x="183.6" y="589.8" width="244.8" height="20.4"/>
	</g>
</g>
<g>
	<g>
		<path d="M607.7,479.5L539,430.4l-45.3-135.9c-4.2-12.5-15.8-21-29-21c0,0,0,0,0,0H295.8V294h168.9c0,0,0,0,0,0
			c4.4,0,8.3,2.8,9.7,7l46.3,139c0.7,2,2,3.8,3.8,5.1l67.1,47.9v96.7h-61.2v20.4h71.4c5.6,0,10.2-4.6,10.2-10.2V487.8
			C612,484.5,610.4,481.4,607.7,479.5z"/>
	</g>
</g>
<g>
	<g>
		<path d="M20.4,589.8V298.1c0-2.3,1.8-4.1,4.1-4.1h36.7v-20.4H24.5C11,273.6,0,284.6,0,298.1V600c0,5.6,4.6,10.2,10.2,10.2h71.4
			v-20.4H20.4z"/>
	</g>
</g>
<g>
	<g>
		<rect x="561" y="549" width="40.8" height="20.4"/>
	</g>
</g>
<g>
	<g>
		<rect x="10.2" y="549" width="61.2" height="20.4"/>
	</g>
</g>
<g>
	<g>
		<path d="M438.6,426.6c-5.6,0-10.2-4.6-10.2-10.2V345c0-5.6,4.6-10.2,10.2-10.2h51v-20.4h-51c-16.9,0-30.6,13.7-30.6,30.6v71.4
			c0,16.9,13.7,30.6,30.6,30.6h91.8v-20.4H438.6z"/>
	</g>
</g>
<g>
	<g>
		<rect x="428.4" y="467.4" width="40.8" height="20.4"/>
	</g>
</g>
<g>
	<g>
		<rect x="204" y="549" width="193.8" height="20.4"/>
	</g>
</g>
<g>
	<g>
		<rect x="10.2" y="426.6" width="40.8" height="20.4"/>
	</g>
</g>
</svg>
