<?xml version="1.0" encoding="utf-8"?>
<!DOCTYPE svg PUBLIC "-//W3C//DTD SVG 1.1//EN" "http://www.w3.org/Graphics/SVG/1.1/DTD/svg11.dtd">
<svg version="1.1" class='svg' id="Capa_1" xmlns="http://www.w3.org/2000/svg" xmlns:xlink="http://www.w3.org/1999/xlink" x="0px" y="0px"
	 viewBox="0 90 612 612" enable-background="new 0 90 612 612" xml:space="preserve">
<g>
	<path d="M353.2,451.3c-1.8-3-4.6-5.3-8-6.2c-3.4-0.9-7-0.4-10,1.3c-8.8,5.1-18.9,7.8-29.1,7.8c-10.2,0-20.3-2.7-29.1-7.8
		c-3-1.8-6.6-2.2-10-1.3c-3.4,0.9-6.3,3.1-8,6.2l-89,154.2c-1.8,3-2.2,6.6-1.3,10s3.1,6.3,6.2,8c39.2,22.6,83.9,34.8,129.2,35.2
		c0.8,0,1.6,0,2.3,0c45.9,0,91.2-12.2,131.1-35.2c6.3-3.7,8.5-11.7,4.8-18.1L353.2,451.3z M306.2,632.3c-0.7,0-1.4,0-2.1,0
		c-36.3-0.3-72.2-9.1-104.6-25.4L275.6,475c9.7,3.7,20,5.6,30.4,5.6c10.4,0,20.7-1.9,30.4-5.6l76.1,131.9
		C379.5,623.6,343,632.3,306.2,632.3z"/>
	<path d="M247.8,396c0-20.7,11.1-40,29.1-50.4c6.3-3.7,8.5-11.7,4.8-18l-89-154.2c-1.8-3-4.6-5.3-8-6.2c-3.4-0.9-7-0.4-10,1.3
		c-39.2,22.7-72.1,55.3-95.1,94.3C55.8,303,43.3,349.1,43.3,396c0,7.3,5.9,13.2,13.2,13.2h178.1C241.9,409.2,247.8,403.3,247.8,396z
		 M70.1,382.8c2.1-37.6,13.1-74.2,32.2-106.6c18.5-31.3,44-58,74.3-77.9l76.2,131.9c-16.2,13.2-27.1,32-30.3,52.6H70.1z"/>
	<path d="M534.6,266.5c-23-40.6-56.6-74.5-97.2-98c-6.3-3.6-14.4-1.5-18.1,4.8l-89,154.2c-3.6,6.3-1.5,14.4,4.8,18
		c18,10.4,29.1,29.7,29.1,50.4c0,7.3,5.9,13.2,13.2,13.2h178.1c3.5,0,6.9-1.4,9.3-3.9c2.5-2.5,3.9-5.8,3.9-9.4
		C568.7,350.7,556.9,305.9,534.6,266.5z M389.6,382.8c-3.3-20.6-14.1-39.4-30.4-52.6l76.1-131.9c31.5,20.6,57.7,48.5,76.2,81.2
		c17.9,31.6,28.3,67.1,30.3,103.3L389.6,382.8L389.6,382.8z"/>
	<path d="M261.4,396c0,24.6,20,44.6,44.6,44.6c24.6,0,44.6-20,44.6-44.6s-20-44.6-44.6-44.6C281.4,351.4,261.4,371.4,261.4,396z
		 M306,377.9c10,0,18.1,8.1,18.1,18.1s-8.1,18.1-18.1,18.1c-10,0-18.1-8.1-18.1-18.1S296,377.9,306,377.9z"/>
	<path d="M522.4,179.6C464.6,121.8,387.7,90,306,90s-158.6,31.8-216.4,89.6S0,314.3,0,396s31.8,158.6,89.6,216.4
		C147.4,670.2,224.3,702,306,702s158.6-31.8,216.4-89.6C580.2,554.6,612,477.7,612,396S580.2,237.4,522.4,179.6z M306,675.6
		C151.8,675.6,26.4,550.2,26.4,396S151.8,116.4,306,116.4S585.6,241.8,585.6,396S460.2,675.6,306,675.6z"/>
</g>
</svg>
