<?xml version="1.0" encoding="utf-8"?>
<!DOCTYPE svg PUBLIC "-//W3C//DTD SVG 1.1//EN" "http://www.w3.org/Graphics/SVG/1.1/DTD/svg11.dtd">
<svg version="1.1" id="Capa_1" xmlns="http://www.w3.org/2000/svg" xmlns:xlink="http://www.w3.org/1999/xlink" x="0px" y="0px"
	 viewBox="0 181.8 612 428.4" enable-background="new 0 181.8 612 428.4" xml:space="preserve">
<g>
	<g>
		<path d="M153,487.8c-33.8,0-61.2,27.4-61.2,61.2s27.4,61.2,61.2,61.2s61.2-27.4,61.2-61.2S186.8,487.8,153,487.8z M153,589.8
			c-22.5,0-40.8-18.3-40.8-40.8c0-22.5,18.3-40.8,40.8-40.8s40.8,18.3,40.8,40.8C193.8,571.5,175.5,589.8,153,589.8z"/>
	</g>
</g>
<g>
	<g>
		<rect x="142.8" y="538.8" width="20.4" height="20.4"/>
	</g>
</g>
<g>
	<g>
		<path d="M499.8,487.8c-33.8,0-61.2,27.4-61.2,61.2s27.4,61.2,61.2,61.2S561,582.8,561,549S533.6,487.8,499.8,487.8z M499.8,589.8
			c-22.5,0-40.8-18.3-40.8-40.8s18.3-40.8,40.8-40.8c22.5,0,40.8,18.3,40.8,40.8C540.6,571.5,522.3,589.8,499.8,589.8z"/>
	</g>
</g>
<g>
	<g>
		<rect x="489.6" y="538.8" width="20.4" height="20.4"/>
	</g>
</g>
<g>
	<g>
		<path d="M611.3,463.6l-61.2-153c-1.6-3.9-5.3-6.4-9.5-6.4H408c-5.6,0-10.2,4.6-10.2,10.2V549c0,5.6,4.6,10.2,10.2,10.2h40.8v-20.4
			h-30.6V324.6h115.5l57.9,144.8v69.4h-40.8v20.4h51c5.6,0,10.2-4.6,10.2-10.2v-81.6C612,466.1,611.8,464.8,611.3,463.6z"/>
	</g>
</g>
<g>
	<g>
		<path d="M408,222.6H10.2c-5.6,0-10.2,4.6-10.2,10.2V549c0,5.6,4.6,10.2,10.2,10.2H102v-20.4H20.4V243h377.4v295.8H204v20.4h204
			c5.6,0,10.2-4.6,10.2-10.2V232.8C418.2,227.2,413.6,222.6,408,222.6z"/>
	</g>
</g>
<g>
	<g>
		<path d="M479.4,426.6v-61.2h71.4V345h-81.6c-5.6,0-10.2,4.6-10.2,10.2v81.6c0,5.6,4.6,10.2,10.2,10.2h122.4v-20.4H479.4z"/>
	</g>
</g>
<g>
	<g>
		<rect x="571.2" y="498" width="30.6" height="20.4"/>
	</g>
</g>
<g>
	<g>
		<rect y="498" width="81.6" height="20.4"/>
	</g>
</g>
<g>
	<g>
		<rect x="224.4" y="498" width="183.6" height="20.4"/>
	</g>
</g>
<g>
	<g>
		<path d="M61.2,304.2c-5.6,0-10.2,4.6-10.2,10.2v91.8h20.4v-81.6h40.8v-20.4H61.2z"/>
	</g>
</g>
<g>
	<g>
		<rect x="61.2" y="345" width="51" height="20.4"/>
	</g>
</g>
<g>
	<g>
		<path d="M204,334.8c0-16.9-13.7-30.6-30.6-30.6h-30.6c-5.6,0-10.2,4.6-10.2,10.2v91.8H153v-81.6h20.4c5.6,0,10.2,4.6,10.2,10.2
			S179,345,173.4,345c-5.6,0-10.2,4.6-10.2,10.2c0,5.6,4.6,10.2,10.2,10.2c5.6,0,10.2,4.6,10.2,10.2v30.6H204v-30.6
			c0-7.8-3-15-7.8-20.4C201,349.8,204,342.6,204,334.8z"/>
	</g>
</g>
<g>
	<g>
		<rect x="234.6" y="345" width="51" height="20.4"/>
	</g>
</g>
<g>
	<g>
		<path d="M285.6,324.6v-20.4h-51c-5.6,0-10.2,4.6-10.2,10.2V396c0,5.6,4.6,10.2,10.2,10.2h51v-20.4h-40.8v-61.2L285.6,324.6
			L285.6,324.6z"/>
	</g>
</g>
<g>
	<g>
		<rect x="316.2" y="345" width="51" height="20.4"/>
	</g>
</g>
<g>
	<g>
		<path d="M367.2,324.6v-20.4h-51c-5.6,0-10.2,4.6-10.2,10.2V396c0,5.6,4.6,10.2,10.2,10.2h51v-20.4h-40.8v-61.2L367.2,324.6
			L367.2,324.6z"/>
	</g>
</g>
<g>
	<g>
		<rect x="51" y="426.6" width="316.2" height="20.4"/>
	</g>
</g>
<g>
	<g>
		<rect x="40.8" y="181.8" width="91.8" height="20.4"/>
	</g>
</g>
<g>
	<g>
		<rect y="181.8" width="20.4" height="20.4"/>
	</g>
</g>
</svg>
