<?xml version="1.0" encoding="utf-8"?>
<!-- Generator: Adobe Illustrator 17.1.0, SVG Export Plug-In . SVG Version: 6.00 Build 0)  -->
<!DOCTYPE svg PUBLIC "-//W3C//DTD SVG 1.1//EN" "http://www.w3.org/Graphics/SVG/1.1/DTD/svg11.dtd">
<svg version="1.1" id="Layer_1" xmlns="http://www.w3.org/2000/svg" xmlns:xlink="http://www.w3.org/1999/xlink" x="0px" y="0px"
	 viewBox="0 90 612 612" enable-background="new 0 90 612 612" xml:space="preserve">
<g>
	<g>
		<g>
			<path d="M561,518.4H275.4c-5.6,0-10.2,4.6-10.2,10.2c0,5.6,4.6,10.2,10.2,10.2H561c5.6,0,10.2-4.6,10.2-10.2
				C571.2,523,566.6,518.4,561,518.4z"/>
			<path d="M520.2,314.4h-40.8c-5.6,0-10.2,4.6-10.2,10.2c0,5.6,4.6,10.2,10.2,10.2h40.8c5.6,0,10.2-4.6,10.2-10.2
				C530.4,319,525.8,314.4,520.2,314.4z"/>
			<path d="M520.2,436.8h-40.8c-5.6,0-10.2,4.6-10.2,10.2s4.6,10.2,10.2,10.2h40.8c5.6,0,10.2-4.6,10.2-10.2
				S525.8,436.8,520.2,436.8z"/>
			<path d="M520.2,375.6h-40.8c-5.6,0-10.2,4.6-10.2,10.2c0,5.6,4.6,10.2,10.2,10.2h40.8c5.6,0,10.2-4.6,10.2-10.2
				C530.4,380.2,525.8,375.6,520.2,375.6z"/>
			<path d="M255,559.2h-10.2V120.6c0-16.9-13.7-30.6-30.6-30.6H91.8c-16.9,0-30.6,13.7-30.6,30.6v408c0,5.6,4.6,10.2,10.2,10.2
				s10.2-4.6,10.2-10.2v-408c0-5.6,4.6-10.2,10.2-10.2h122.4c5.6,0,10.2,4.6,10.2,10.2v489.6c0,5.6-4.6,10.2-10.2,10.2H91.8
				c-5.6,0-10.2-4.6-10.2-10.2v-40.8c0-5.6-4.6-10.2-10.2-10.2H51c-18.3,0-30.6-12.3-30.6-30.6V161.4c0-10.9,5.7-20.7,15.3-26.3
				c4.9-2.8,6.5-9.1,3.7-14c-2.8-4.9-9.1-6.5-13.9-3.7c-15.7,9.2-25.5,26-25.5,44v367.2c0,29.5,21.5,51,51,51h10.2v30.6
				c0,16.9,13.7,30.6,30.6,30.6h122.4c16.9,0,30.6-13.7,30.6-30.6v-30.6H255c5.6,0,10.2-4.6,10.2-10.2
				C265.2,563.8,260.6,559.2,255,559.2z"/>
			<path d="M540.6,559.2c-5.6,0-10.2,4.6-10.2,10.2v112.2H306V569.4c0-5.6-4.6-10.2-10.2-10.2c-5.6,0-10.2,4.6-10.2,10.2v122.4
				c0,5.6,4.6,10.2,10.2,10.2h244.8c5.6,0,10.2-4.6,10.2-10.2V569.4C550.8,563.8,546.2,559.2,540.6,559.2z"/>
			<path d="M357,640.8h102c5.6,0,10.2-4.6,10.2-10.2c0-5.6-4.6-10.2-10.2-10.2H357c-5.6,0-10.2,4.6-10.2,10.2
				C346.8,636.2,351.4,640.8,357,640.8z"/>
			<path d="M357,600h122.4c5.6,0,10.2-4.6,10.2-10.2c0-5.6-4.6-10.2-10.2-10.2H357c-5.6,0-10.2,4.6-10.2,10.2
				C346.8,595.4,351.4,600,357,600z"/>
			<path d="M316.2,396H357c5.6,0,10.2-4.6,10.2-10.2c0-5.6-4.6-10.2-10.2-10.2h-40.8c-5.6,0-10.2,4.6-10.2,10.2
				C306,391.4,310.6,396,316.2,396z"/>
			<path d="M316.2,334.8H357c5.6,0,10.2-4.6,10.2-10.2c0-5.6-4.6-10.2-10.2-10.2h-40.8c-5.6,0-10.2,4.6-10.2,10.2
				C306,330.2,310.6,334.8,316.2,334.8z"/>
			<path d="M316.2,457.2H357c5.6,0,10.2-4.6,10.2-10.2s-4.6-10.2-10.2-10.2h-40.8c-5.6,0-10.2,4.6-10.2,10.2
				S310.6,457.2,316.2,457.2z"/>
			<path d="M561,110.4H275.4c-5.6,0-10.2,4.6-10.2,10.2s4.6,10.2,10.2,10.2H561c16.9,0,30.6,13.7,30.6,30.6v377.4
				c0,10.8-5.8,20.9-15.1,26.4c-4.9,2.9-6.5,9.1-3.6,14c1.9,3.2,5.3,5,8.8,5c1.8,0,3.5-0.5,5.2-1.4c15.5-9.1,25.2-26,25.2-44V161.4
				C612,133.3,589.1,110.4,561,110.4z"/>
			<path d="M438.6,375.6h-40.8c-5.6,0-10.2,4.6-10.2,10.2c0,5.6,4.6,10.2,10.2,10.2h40.8c5.6,0,10.2-4.6,10.2-10.2
				C448.8,380.2,444.2,375.6,438.6,375.6z"/>
			<path d="M530.4,202.2c0-5.6-4.6-10.2-10.2-10.2h-204c-5.6,0-10.2,4.6-10.2,10.2v61.2c0,5.6,4.6,10.2,10.2,10.2h204
				c5.6,0,10.2-4.6,10.2-10.2V202.2z M510,253.2H326.4v-40.8H510V253.2z"/>
			<path d="M438.6,436.8h-40.8c-5.6,0-10.2,4.6-10.2,10.2s4.6,10.2,10.2,10.2h40.8c5.6,0,10.2-4.6,10.2-10.2
				S444.2,436.8,438.6,436.8z"/>
			<path d="M438.6,314.4h-40.8c-5.6,0-10.2,4.6-10.2,10.2c0,5.6,4.6,10.2,10.2,10.2h40.8c5.6,0,10.2-4.6,10.2-10.2
				C448.8,319,444.2,314.4,438.6,314.4z"/>
		</g>
	</g>
</g>
</svg>
