<?xml version="1.0" encoding="utf-8"?>
<!DOCTYPE svg PUBLIC "-//W3C//DTD SVG 1.1//EN" "http://www.w3.org/Graphics/SVG/1.1/DTD/svg11.dtd">
<svg version="1.1" id="Capa_1" xmlns="http://www.w3.org/2000/svg" xmlns:xlink="http://www.w3.org/1999/xlink" x="0px" y="0px"
	 viewBox="0 90 612 612" enable-background="new 0 90 612 612" xml:space="preserve">
<g>
	<g>
		<path d="M567.6,237.9C525.3,167.9,458.4,118.6,379.1,99c-79.3-19.6-161.5-7.1-231.5,35.1l10.5,17.5c65.3-39.4,142-51.1,216-32.8
			c74,18.3,136.5,64.3,175.9,129.6c63.9,105.7,52.7,239.8-27.7,333.5l15.5,13.3C624.1,494.8,636,351.2,567.6,237.9z"/>
	</g>
</g>
<g>
	<g>
		<path d="M483,619.8c-59.8,47.4-134.4,68.6-210.2,59.8c-75.7-8.8-143.5-46.5-190.9-106.3C-6,462.4,1.4,301.5,99,199.1L84.3,185
			C-20.3,294.8-28.2,467.2,66,586c50.7,64,123.4,104.5,204.5,113.9c12,1.4,23.9,2.1,35.8,2.1c68.6,0,134.8-22.9,189.4-66.2
			L483,619.8z"/>
	</g>
</g>
<g>
	<g>
		<rect x="295.6" y="559.1" width="20.4" height="121.1"/>
	</g>
</g>
<g>
	<g>
		<rect x="295.6" y="253.2" width="20.4" height="132.6"/>
	</g>
</g>
<g>
	<g>
		<rect x="295.6" y="100.3" width="20.4" height="81.6"/>
	</g>
</g>
<g>
	<g>
		<rect x="458.7" y="385.8" width="142.7" height="20.4"/>
	</g>
</g>
<g>
	<g>
		<rect x="244.6" y="385.8" width="40.8" height="20.4"/>
	</g>
</g>
<g>
	<g>
		<rect x="10.1" y="385.8" width="163.1" height="20.4"/>
	</g>
</g>
<g>
	<g>
		<rect x="367" y="232.9" width="193.7" height="20.4"/>
	</g>
</g>
<g>
	<g>
		<rect x="47.7" y="232.9" width="258.1" height="20.4"/>
	</g>
</g>
<g>
	<g>
		<rect x="499.5" y="538.7" width="64.3" height="20.4"/>
	</g>
</g>
<g>
	<g>
		<rect x="295.6" y="538.7" width="10.2" height="20.4"/>
	</g>
</g>
<g>
	<g>
		<rect x="61.1" y="538.7" width="234.5" height="20.4"/>
	</g>
</g>
<g>
	<g>
		<path d="M223.6,117l-17.5-10.5c-107.2,178.6-107.2,400.4,0,579l17.5-10.5C120.3,502.9,120.3,289.1,223.6,117z"/>
	</g>
</g>
<g>
	<g>
		<path d="M435.5,576.1c-12.1,34.4-27.8,67.6-46.6,98.9l17.5,10.5c19.5-32.4,35.8-66.9,48.4-102.6L435.5,576.1z"/>
	</g>
</g>
<g>
	<g>
		<path d="M406.3,106.5L388.8,117c50.6,84.3,77.4,180.7,77.4,279h20.4C486.6,294,458.8,193.9,406.3,106.5z"/>
	</g>
</g>
<g>
	<g>
		<path d="M377.2,345c-67.5,0-122.4,54.9-122.4,122.4s54.9,122.4,122.4,122.4s122.4-54.9,122.4-122.4S444.6,345,377.2,345z
			 M377.2,569.3c-56.2,0-102-45.7-102-102s45.7-102,102-102c56.2,0,102,45.7,102,102C479.1,523.6,433.4,569.3,377.2,569.3z"/>
	</g>
</g>
<g>
	<g>
		<path d="M316,467.4h-20.4c0,45,36.6,81.6,81.6,81.6h0v-20.4C343.5,528.5,316,501.1,316,467.4z"/>
	</g>
</g>
<g>
	<g>
		<path d="M388.8,386.6l-2.9,20.2c29.9,4.3,52.4,30.3,52.4,60.6h20.4C458.7,427.1,428.7,392.4,388.8,386.6z"/>
	</g>
</g>
<g>
	<g>
		<path d="M608.7,643.7L486.4,521.3l-14.4,14.4l115.1,115.1l-26.4,26.4L445.6,562.1l-14.4,14.4l122.4,122.4c2,2,4.6,3,7.2,3
			c2.6,0,5.2-1,7.2-3l40.8-40.8C612.7,654.1,612.7,647.7,608.7,643.7z"/>
	</g>
</g>
<g>
	<g>
		<path d="M138,117.3c-7.7-4.5-16.5-6.8-25.4-6.8c-0.2,0-0.5,0-0.7,0c-13.6,0-26.4,5.3-36,14.9c-9.6,9.6-15,22.4-15,36
			c0,9.3,2.5,18.4,7.3,26.4l35.7,60.4c1.8,3.1,5.2,5,8.8,5c0,0,0.1,0,0.1,0c3.6,0,7-2,8.8-5.1l35.1-61.2
			C170.7,162.6,162.4,131.4,138,117.3z M139,176.8l-26.4,46l-26.8-45.4c0,0,0-0.1-0.1-0.1c-2.9-4.8-4.4-10.3-4.4-15.9
			c0-8.2,3.2-15.9,9-21.6c5.8-5.8,13.4-8.9,21.7-8.9c0,0,0,0,0.1,0c5.2,0.1,10.9,1.3,15.7,4.1C142.4,143.4,147.5,162.2,139,176.8z"
			/>
	</g>
</g>
<g>
	<g>
		<rect x="101.7" y="151.3" width="20.4" height="20.4"/>
	</g>
</g>
<g>
	<g>
		<path d="M263,362.4c-3.5-13.2-12-24.2-23.8-31c-7.6-4.4-16.4-6.8-25.1-6.8c-13.6-0.2-26.5,4.9-36.3,14.3
			c-9.8,9.5-15.3,22.2-15.5,35.8c-0.2,9.6,2.4,19,7.3,27.2l35.6,60.4c1.8,3.1,5.2,5,8.8,5c0,0,0,0,0.1,0c3.6,0,7-2,8.8-5.1
			l35.1-61.1C264.7,389.3,266.6,375.6,263,362.4z M240.3,390.9l-26.3,45.9l-26.7-45.3c0,0,0-0.1-0.1-0.1c-3-4.9-4.5-10.6-4.4-16.4
			c0.1-8.2,3.4-15.8,9.3-21.5c5.8-5.6,13.3-8.6,21.4-8.6c0.2,0,0.4,0,0.5,0c5.3,0,10.5,1.4,15.1,4.1
			C243.7,357.5,248.7,376.3,240.3,390.9z"/>
	</g>
</g>
<g>
	<g>
		<rect x="203.1" y="365.4" width="20.4" height="20.4"/>
	</g>
</g>
<g>
	<g>
		<path d="M385.4,199.3c-3.5-13.2-12-24.2-23.7-31c-7.6-4.4-16.4-6.8-25.1-6.8c-13.2-0.2-26.5,4.9-36.3,14.3
			c-9.8,9.5-15.3,22.2-15.5,35.8c-0.2,9.6,2.4,19,7.3,27.2l35.6,60.4c1.8,3.1,5.2,5,8.8,5c0,0,0,0,0.1,0c3.6,0,7-2,8.8-5.1
			l35.1-61.2C387.1,226.1,388.9,212.4,385.4,199.3z M362.6,227.8l-26.3,46l-26.7-45.3c0,0,0-0.1-0.1-0.1c-3-4.9-4.5-10.6-4.4-16.4
			c0.1-8.2,3.4-15.8,9.3-21.5c5.8-5.6,13.3-8.6,21.4-8.6c0.2,0,0.4,0,0.6,0c5.3,0,10.5,1.4,15.1,4.1
			C366,194.4,371.1,213.1,362.6,227.8z"/>
	</g>
</g>
<g>
	<g>
		<rect x="325.5" y="202.3" width="20.4" height="20.4"/>
	</g>
</g>
</svg>
