<?xml version="1.0" encoding="utf-8"?>
<!DOCTYPE svg PUBLIC "-//W3C//DTD SVG 1.1//EN" "http://www.w3.org/Graphics/SVG/1.1/DTD/svg11.dtd">
<svg version="1.1" class='svg' id="Слой_1" xmlns="http://www.w3.org/2000/svg" xmlns:xlink="http://www.w3.org/1999/xlink" x="0px" y="0px"
	 viewBox="0 90 612 612" enable-background="new 0 90 612 612" xml:space="preserve">
<g>
	<path d="M559.4,634.8l-81-195.6c-2.1-5-7.8-7.4-12.8-5.3c-5,2.1-7.4,7.8-5.3,12.8l73.2,176.8l-66.8-19.4c-4.4-1.3-9.1,0.7-11.3,4.7
		l-33.6,60.9L343.3,480c90.7-17.5,159.4-97.5,159.4-193.2C502.8,178.3,414.5,90,306,90s-196.8,88.3-196.8,196.8
		c0,43.9,14.5,84.6,38.9,117.4L52.6,634.8c-1.4,3.5-0.8,7.5,1.7,10.3c2.5,2.8,6.4,3.9,10,2.9l78.8-22.8l39.6,71.9
		c1.7,3.1,5,5.1,8.6,5.1c0.2,0,0.4,0,0.5,0c3.7-0.2,7-2.5,8.5-6L276,513.2c2.1-5-0.3-10.7-5.3-12.8c-5-2.1-10.7,0.3-12.8,5.3
		l-67.9,164l-33.6-60.9c-2.2-4-6.9-5.9-11.3-4.7l-66.8,19.4L162.3,421c35.9,38.4,87.1,62.5,143.7,62.5c5.8,0,11.6-0.3,17.4-0.8
		L411.7,696c1.4,3.5,4.7,5.8,8.5,6c0.2,0,0.4,0,0.5,0c3.5,0,6.8-1.9,8.6-5.1l39.6-71.9l78.8,22.8c3.6,1,7.5-0.1,10-2.9
		C560.1,642.2,560.8,638.3,559.4,634.8L559.4,634.8z M128.8,286.8c0-97.7,79.5-177.2,177.2-177.2S483.2,189,483.2,286.8
		S403.7,464,306,464S128.8,384.5,128.8,286.8L128.8,286.8z"/>
	<path d="M418.8,250.1c-1.1-3.5-4.1-6-7.7-6.6l-65.7-11l-30.8-59.1c-1.7-3.2-5-5.3-8.7-5.3c-3.6,0-7,2-8.7,5.3l-30.8,59.1l-65.7,11
		c-3.6,0.6-6.5,3.2-7.7,6.6c-1.1,3.5-0.2,7.3,2.3,9.9l46.7,47.5l-9.8,65.9c-0.5,3.6,1,7.2,3.9,9.3c2.9,2.1,6.8,2.5,10.1,0.8
		l59.6-29.7l59.6,29.7c1.4,0.7,2.9,1,4.4,1c2,0,4-0.6,5.7-1.9c2.9-2.1,4.5-5.7,3.9-9.3l-9.8-65.9l46.7-47.5
		C419.1,257.4,420,253.6,418.8,250.1z M352.5,297.3c-2.1,2.2-3.1,5.3-2.7,8.3l7.8,52.2l-47.2-23.5c-1.4-0.7-2.9-1-4.4-1
		c-1.5,0-3,0.3-4.4,1l-47.2,23.5l7.8-52.2c0.5-3-0.5-6.1-2.7-8.3l-37-37.6l52-8.7c3-0.5,5.6-2.4,7-5.1L306,199l24.4,46.8
		c1.4,2.7,4,4.6,7,5.1l52,8.7L352.5,297.3L352.5,297.3z"/>
	<path d="M453.9,296.6c-5.3-0.7-10.3,3.1-11,8.4C433.9,373.4,375,425,306,425c-76.2,0-138.2-62-138.2-138.2s62-138.2,138.2-138.2
		c69,0,127.9,51.6,137,119.9c0.7,5.3,5.6,9.1,11,8.4c5.3-0.7,9.1-5.6,8.4-11c-10.3-78-77.5-136.9-156.3-136.9
		c-87,0-157.7,70.7-157.7,157.7S219,444.5,306,444.5c78.8,0,146-58.9,156.3-136.9C463,302.2,459.3,297.3,453.9,296.6L453.9,296.6z"
		/>
</g>
</svg>
